<svg width="177" height="178" viewBox="0 0 177 178" fill="none" xmlns="http://www.w3.org/2000/svg">
<circle cx="88.3457" cy="88.7705" r="75" fill="#FF6600"/>
<path d="M131.094 58.469C130.471 57.6165 130.111 56.7633 130.015 55.9095C129.933 55.0579 130.094 54.2441 130.499 53.4682C130.909 52.7001 131.537 52.0074 132.382 51.39C133.242 50.7612 134.107 50.3689 134.977 50.213C135.853 50.0649 136.684 50.1595 137.471 50.4967C138.265 50.8282 138.968 51.4123 139.579 52.2493C140.042 52.8828 140.347 53.5299 140.494 54.1905C140.649 54.8455 140.627 55.4798 140.427 56.0935C140.241 56.7094 139.872 57.2793 139.319 57.8034L138.136 56.1844C138.445 55.8026 138.594 55.3752 138.585 54.9023C138.588 54.4315 138.405 53.9419 138.033 53.4335C137.621 52.8703 137.164 52.5149 136.66 52.3672C136.169 52.2216 135.667 52.2232 135.151 52.3718C134.644 52.5147 134.167 52.7491 133.721 53.075C133.26 53.4122 132.879 53.8106 132.579 54.27C132.278 54.7294 132.122 55.2216 132.11 55.7465C132.103 56.2793 132.303 56.8234 132.709 57.3787C132.949 57.7072 133.21 57.9662 133.493 58.1557C133.783 58.3395 134.082 58.445 134.39 58.472C134.703 58.5069 135.012 58.4613 135.316 58.3352L136.542 60.013C135.888 60.3827 135.227 60.5538 134.559 60.5262C133.891 60.4985 133.259 60.3066 132.662 59.9505C132.074 59.5886 131.551 59.0948 131.094 58.469Z" fill="white"/>
<path d="M136.163 67.0312C135.834 66.3294 135.686 65.6496 135.72 64.9917C135.763 64.3297 135.98 63.7306 136.37 63.1944C136.77 62.6541 137.334 62.2133 138.062 61.872C138.807 61.5225 139.516 61.3671 140.186 61.4058C140.87 61.4491 141.48 61.6661 142.016 62.0567C142.552 62.4474 142.981 62.9848 143.301 63.669C143.63 64.3708 143.767 65.0503 143.711 65.7077C143.656 66.365 143.428 66.9638 143.029 67.5041C142.629 68.0444 142.057 68.4893 141.311 68.8388C140.583 69.1801 139.884 69.3314 139.213 69.2927C138.555 69.2587 137.964 69.0487 137.441 68.6628C136.922 68.2856 136.496 67.7417 136.163 67.0312ZM137.835 66.2154C138.024 66.6189 138.264 66.9024 138.554 67.0657C138.845 67.2291 139.155 67.2977 139.485 67.2713C139.828 67.2497 140.157 67.1649 140.473 67.0168C140.789 66.8688 141.065 66.6699 141.301 66.4202C141.541 66.1793 141.696 65.8928 141.765 65.5609C141.847 65.2336 141.791 64.8638 141.598 64.4515C141.413 64.0567 141.166 63.7818 140.858 63.6266C140.559 63.4673 140.238 63.3985 139.895 63.4202C139.556 63.4506 139.229 63.5398 138.913 63.6879C138.588 63.84 138.31 64.0345 138.079 64.2713C137.852 64.5169 137.708 64.8037 137.648 65.1315C137.587 65.4594 137.65 65.8207 137.835 66.2154Z" fill="white"/>
<path d="M138.456 72.1138L145.846 70.1056L146.346 71.9426L145.517 72.2732C145.825 72.4103 146.085 72.5907 146.296 72.8144C146.52 73.0448 146.696 73.288 146.826 73.5439C146.958 73.8091 147.055 74.0539 147.116 74.2783C147.309 74.9888 147.305 75.5823 147.103 76.0588C146.903 76.5446 146.565 76.9428 146.087 77.2533C145.621 77.5707 145.07 77.8157 144.435 77.9885L140.354 79.0974L139.82 77.1341L143.649 76.0938C143.873 76.0329 144.092 75.9532 144.307 75.8548C144.521 75.7565 144.707 75.6304 144.866 75.4768C145.028 75.3325 145.141 75.1563 145.205 74.9482C145.269 74.7401 145.261 74.4911 145.182 74.2013C145.081 73.8273 144.902 73.5396 144.647 73.3379C144.391 73.1363 144.088 73.018 143.737 72.9828C143.386 72.9476 143.019 72.9821 142.636 73.0863L138.99 74.0771L138.456 72.1138Z" fill="white"/>
<path d="M141.005 84.2234C140.921 83.5896 140.927 83.0464 141.023 82.5938C141.12 82.1509 141.337 81.7947 141.673 81.5254C142.019 81.2644 142.514 81.0911 143.157 81.0057L146.413 80.5734L146.264 79.4498L148.065 79.2106L148.214 80.3343L150.245 80.0645L150.513 82.0813L148.482 82.351L148.702 84.0076L146.901 84.2467L146.681 82.5901L143.713 82.9842C143.396 83.0263 143.154 83.117 142.987 83.2565C142.82 83.396 142.763 83.6674 142.817 84.0708L142.901 84.7046L141.1 84.9437L141.005 84.2234Z" fill="white"/>
<path d="M141.117 88.3314C141.116 87.9827 141.158 87.6435 141.244 87.3138C141.34 86.9938 141.485 86.7075 141.678 86.455C141.871 86.2025 142.112 86.0031 142.402 85.8568C142.692 85.7105 143.031 85.6368 143.419 85.6355C143.942 85.6338 144.359 85.739 144.67 85.9511C144.99 86.1632 145.233 86.4481 145.399 86.8061C145.565 87.164 145.678 87.5753 145.737 88.0402C145.797 88.5147 145.828 89.0038 145.829 89.5076L145.833 90.612C146.114 90.6111 146.361 90.557 146.573 90.4497C146.796 90.3521 146.965 90.2014 147.081 89.9975C147.206 89.7937 147.268 89.5319 147.267 89.2122C147.266 89.0088 147.237 88.8103 147.178 88.6167C147.129 88.4328 147.056 88.278 146.958 88.1524C146.861 88.0268 146.735 87.9448 146.58 87.9066L146.573 85.8431C146.999 85.8998 147.363 86.0343 147.664 86.2464C147.975 86.4585 148.228 86.7241 148.422 87.0432C148.617 87.3622 148.759 87.7105 148.847 88.0881C148.945 88.4753 148.995 88.8723 148.996 89.2792C149 90.3933 148.683 91.2178 148.045 91.7527C147.417 92.2876 146.522 92.557 145.36 92.5608L141.233 92.5744L141.227 90.7434L142.215 90.7111C141.875 90.47 141.627 90.1947 141.471 89.8852C141.315 89.5854 141.217 89.2951 141.177 89.0142C141.138 88.7334 141.118 88.5058 141.117 88.3314ZM142.732 88.7912C142.733 89.1302 142.802 89.44 142.938 89.7205C143.075 90.001 143.259 90.2232 143.492 90.3872C143.726 90.5511 143.987 90.6326 144.278 90.6316L144.467 90.631L144.462 89.236C144.462 89.0325 144.451 88.8339 144.431 88.6403C144.411 88.4562 144.372 88.2868 144.313 88.132C144.264 87.9869 144.182 87.8709 144.065 87.7841C143.949 87.6973 143.794 87.6542 143.6 87.6548C143.406 87.6555 143.241 87.7044 143.106 87.8018C142.981 87.9087 142.884 88.0495 142.817 88.2241C142.759 88.3987 142.731 88.5877 142.732 88.7912Z" fill="white"/>
<path d="M140.435 97.8565C140.56 97.0818 140.824 96.4424 141.229 95.9384C141.633 95.444 142.144 95.0995 142.764 94.9049C143.394 94.7118 144.101 94.6784 144.885 94.8045C145.679 94.9323 146.344 95.1913 146.88 95.5817C147.425 95.9736 147.816 96.4731 148.052 97.0802C148.286 97.6969 148.339 98.4021 148.212 99.196C148.113 99.8082 147.915 100.336 147.619 100.779C147.322 101.221 146.944 101.553 146.487 101.774C146.028 102.004 145.493 102.095 144.883 102.046L145.199 100.08C145.548 100.048 145.819 99.9198 146.012 99.6958C146.203 99.4813 146.326 99.2066 146.38 98.8719C146.449 98.4414 146.399 98.0802 146.23 97.7881C146.06 97.5055 145.821 97.2807 145.515 97.1136C145.206 96.9561 144.89 96.8511 144.564 96.7988C144.21 96.7419 143.866 96.7454 143.532 96.8094C143.208 96.8749 142.925 97.0159 142.684 97.2323C142.451 97.4597 142.302 97.7791 142.236 98.1904C142.18 98.5348 142.208 98.8484 142.32 99.1312C142.441 99.4156 142.663 99.623 142.985 99.7534L142.662 101.762C142.048 101.614 141.561 101.345 141.203 100.953C140.844 100.562 140.6 100.096 140.471 99.555C140.35 99.0253 140.338 98.4591 140.435 97.8565Z" fill="white"/>
<path d="M138.483 106.295C138.666 105.682 138.893 105.189 139.166 104.815C139.436 104.451 139.779 104.214 140.196 104.105C140.619 104.009 141.141 104.053 141.763 104.238L144.911 105.174L145.234 104.088L146.975 104.606L146.652 105.692L148.616 106.276L148.036 108.226L146.072 107.642L145.596 109.244L143.855 108.726L144.331 107.124L141.462 106.271C141.156 106.18 140.898 106.164 140.688 106.223C140.478 106.282 140.316 106.506 140.2 106.896L140.017 107.509L138.276 106.991L138.483 106.295Z" fill="white"/>
<path d="M136.268 112.171L145.157 117.351L144.089 119.184L135.683 119.785L141.697 123.29L140.651 125.085L131.761 119.906L132.8 118.123L141.173 117.434L135.221 113.967L136.268 112.171Z" fill="white"/>
<path d="M127.944 124.246C128.455 123.664 129.019 123.257 129.636 123.026C130.26 122.8 130.896 122.759 131.543 122.903C132.198 123.053 132.828 123.394 133.432 123.925C134.05 124.468 134.476 125.055 134.708 125.686C134.942 126.33 134.987 126.975 134.843 127.623C134.699 128.271 134.378 128.878 133.879 129.446C133.367 130.028 132.799 130.425 132.174 130.637C131.55 130.848 130.91 130.879 130.255 130.729C129.6 130.579 128.963 130.232 128.345 129.688C127.741 129.157 127.323 128.577 127.09 127.946C126.858 127.33 126.814 126.704 126.959 126.07C127.097 125.444 127.425 124.836 127.944 124.246ZM129.36 125.453C129.065 125.787 128.901 126.121 128.868 126.452C128.834 126.784 128.895 127.096 129.052 127.388C129.208 127.693 129.418 127.961 129.68 128.192C129.942 128.422 130.234 128.595 130.558 128.712C130.874 128.836 131.199 128.863 131.531 128.794C131.864 128.738 132.18 128.539 132.481 128.197C132.769 127.87 132.922 127.534 132.941 127.189C132.968 126.851 132.902 126.529 132.745 126.224C132.582 125.925 132.369 125.661 132.107 125.431C131.838 125.194 131.549 125.017 131.239 124.9C130.923 124.789 130.603 124.772 130.278 124.848C129.954 124.924 129.647 125.125 129.36 125.453Z" fill="white"/>
<path d="M123.02 129.42L129.563 134.073L127.79 135.414L123.437 132.02L125.449 137.185L123.629 138.561L119.207 135.219L121.311 140.315L119.561 141.638L116.865 134.075L118.732 132.664L123.069 135.869L121.154 130.832L123.02 129.42Z" fill="white"/>
<path d="M110.786 143.524L112.443 143.966L111.912 145.315L113.343 145.064L113.452 146.77L111.998 146.686L112.687 147.961L111.078 148.594L110.713 147.191L109.72 148.238L108.624 146.92L109.843 146.128L108.548 145.498L109.461 144.046L110.573 144.967L110.786 143.524Z" fill="white"/>
<path d="M94.3237 141.743C95.3727 141.622 96.2921 141.731 97.082 142.069C97.8634 142.417 98.4916 142.959 98.9665 143.694C99.4317 144.431 99.7243 145.318 99.8443 146.358C99.9664 147.416 99.8805 148.363 99.5866 149.196C99.283 150.031 98.7905 150.707 98.1091 151.224C97.4287 151.751 96.5737 152.074 95.5439 152.193C94.7643 152.283 94.0511 152.229 93.404 152.03C92.7581 151.842 92.2175 151.509 91.7822 151.033C91.3384 150.567 91.0251 149.964 90.8422 149.225L92.8344 148.995C93.0139 149.452 93.3117 149.793 93.7278 150.018C94.1353 150.254 94.6518 150.336 95.2774 150.264C95.9703 150.184 96.5054 149.961 96.8826 149.596C97.2513 149.241 97.4982 148.803 97.6233 148.282C97.7495 147.77 97.781 147.239 97.7177 146.691C97.6522 146.123 97.4938 145.595 97.2425 145.107C96.9911 144.62 96.6402 144.241 96.1898 143.971C95.7297 143.702 95.158 143.607 94.4747 143.686C94.0704 143.733 93.7162 143.832 93.4119 143.984C93.1088 144.146 92.8695 144.354 92.694 144.608C92.5089 144.864 92.3962 145.154 92.3559 145.481L90.2915 145.719C90.2926 144.968 90.4701 144.309 90.824 143.741C91.1779 143.174 91.6569 142.719 92.261 142.376C92.8662 142.043 93.5537 141.832 94.3237 141.743Z" fill="white"/>
<path d="M84.3631 141.932C85.1359 141.991 85.8003 142.197 86.3562 142.55C86.9114 142.914 87.3262 143.397 87.6006 144.001C87.8742 144.615 87.9804 145.322 87.9191 146.124C87.8562 146.945 87.6429 147.638 87.279 148.203C86.9048 148.777 86.4156 149.201 85.8117 149.475C85.2077 149.75 84.529 149.858 83.7755 149.8C83.0028 149.741 82.344 149.526 81.7992 149.154C81.2544 148.782 80.8452 148.289 80.5715 147.675C80.2978 147.061 80.1924 146.344 80.2552 145.523C80.3166 144.721 80.5292 144.038 80.8931 143.473C81.2465 142.917 81.72 142.507 82.3136 142.241C82.8975 141.975 83.5807 141.872 84.3631 141.932ZM84.2502 143.788C83.8058 143.754 83.441 143.824 83.1558 143.996C82.8705 144.169 82.6581 144.405 82.5186 144.705C82.3686 145.014 82.2803 145.343 82.2537 145.691C82.2271 146.038 82.2644 146.376 82.3655 146.705C82.4571 147.032 82.6303 147.308 82.8852 147.532C83.1298 147.764 83.4791 147.898 83.9331 147.932C84.3677 147.966 84.7285 147.886 85.0152 147.695C85.3012 147.512 85.5192 147.267 85.6691 146.958C85.8094 146.648 85.8929 146.319 85.9195 145.971C85.9469 145.614 85.9144 145.276 85.8221 144.958C85.7202 144.639 85.5414 144.373 85.2857 144.159C85.0301 143.945 84.6849 143.822 84.2502 143.788Z" fill="white"/>
<path d="M78.8009 141.427L76.9227 148.851L75.0772 148.384L75.196 147.5C74.9252 147.701 74.6405 147.839 74.3419 147.914C74.0315 147.995 73.733 148.029 73.4464 148.017C73.1504 148.002 72.8896 147.966 72.6642 147.909C71.9504 147.728 71.4355 147.433 71.1195 147.023C70.794 146.611 70.6133 146.121 70.5773 145.552C70.5295 144.99 70.5864 144.39 70.748 143.752L71.7851 139.652L73.7574 140.151L72.7845 143.997C72.7274 144.222 72.6892 144.453 72.6697 144.687C72.6503 144.922 72.6685 145.147 72.7242 145.361C72.7706 145.572 72.8688 145.757 73.0188 145.915C73.1687 146.073 73.3892 146.189 73.6804 146.262C74.0561 146.357 74.3945 146.343 74.6956 146.219C74.9967 146.096 75.2487 145.889 75.4515 145.601C75.6544 145.313 75.8046 144.976 75.902 144.591L76.8286 140.928L78.8009 141.427Z" fill="white"/>
<path d="M66.9969 137.702C67.5904 137.94 68.0606 138.212 68.4076 138.518C68.7456 138.82 68.9495 139.184 69.0193 139.609C69.0766 140.039 68.9844 140.555 68.7429 141.157L67.5209 144.206L68.573 144.627L67.8972 146.313L66.8451 145.892L66.0827 147.794L64.1943 147.037L64.9567 145.135L63.4055 144.513L64.0814 142.827L65.6326 143.449L66.7464 140.67C66.8654 140.373 66.9051 140.118 66.8657 139.904C66.8263 139.69 66.6177 139.507 66.2401 139.356L65.6466 139.118L66.3225 137.432L66.9969 137.702Z" fill="white"/>
<path d="M63.3767 135.785C63.6809 135.956 63.9553 136.16 64.1999 136.397C64.4314 136.638 64.6096 136.904 64.7345 137.197C64.8595 137.489 64.9142 137.797 64.8988 138.122C64.8834 138.446 64.7809 138.778 64.5914 139.116C64.3355 139.572 64.0388 139.883 63.7013 140.049C63.359 140.224 62.9913 140.295 62.5981 140.264C62.2049 140.232 61.7913 140.128 61.3572 139.951C60.9148 139.77 60.4738 139.556 60.0344 139.309L59.0711 138.769C58.9337 139.014 58.8594 139.256 58.8481 139.494C58.8236 139.735 58.8716 139.957 58.9922 140.158C59.1081 140.367 59.3054 140.55 59.5843 140.706C59.7617 140.806 59.9491 140.878 60.1466 140.922C60.3308 140.969 60.5016 140.982 60.6588 140.959C60.816 140.936 60.9494 140.867 61.0591 140.75L62.8589 141.76C62.5997 142.103 62.3037 142.353 61.9709 142.511C61.6334 142.677 61.2778 142.767 60.9042 142.779C60.5306 142.792 60.1577 142.744 59.7855 142.635C59.4001 142.53 59.03 142.378 58.6751 142.179C57.7033 141.634 57.1414 140.953 56.9894 140.134C56.8327 139.324 57.0386 138.412 57.6072 137.398L59.6258 133.799L61.2229 134.694L60.7649 135.57C61.142 135.393 61.5036 135.313 61.8499 135.329C62.1876 135.341 62.4885 135.399 62.7525 135.502C63.0165 135.606 63.2246 135.7 63.3767 135.785ZM62.1821 136.965C61.8864 136.799 61.5828 136.707 61.2714 136.688C60.96 136.668 60.6756 136.72 60.4183 136.842C60.1609 136.964 59.9611 137.152 59.819 137.406L59.7266 137.571L60.9434 138.253C61.1208 138.352 61.2988 138.441 61.4773 138.519C61.6473 138.592 61.8141 138.641 61.9777 138.666C62.1282 138.695 62.2699 138.68 62.4028 138.621C62.5357 138.563 62.6495 138.449 62.7443 138.28C62.8391 138.111 62.8774 137.944 62.8592 137.778C62.8279 137.616 62.7527 137.463 62.6338 137.318C62.5101 137.182 62.3596 137.064 62.1821 136.965Z" fill="white"/>
<path d="M55.4185 130.494C56.0306 130.985 56.4559 131.531 56.6942 132.132C56.925 132.727 56.9719 133.342 56.8349 133.977C56.6919 134.62 56.3719 135.251 55.8749 135.871C55.3718 136.498 54.8183 136.948 54.2143 137.221C53.6042 137.502 52.977 137.595 52.3325 137.501C51.6806 137.4 51.0409 137.098 50.4136 136.595C49.93 136.207 49.5689 135.775 49.3304 135.298C49.0919 134.821 48.9896 134.329 49.0235 133.822C49.0499 133.309 49.2351 132.8 49.5792 132.293L51.1322 133.539C50.9881 133.858 50.9658 134.157 51.0653 134.435C51.1573 134.708 51.3355 134.95 51.6001 135.162C51.9402 135.435 52.2789 135.57 52.6163 135.567C52.9461 135.559 53.2594 135.462 53.5562 135.278C53.8454 135.088 54.0931 134.864 54.2992 134.607C54.5234 134.327 54.6902 134.027 54.7995 133.704C54.9028 133.39 54.9198 133.074 54.8506 132.758C54.7678 132.443 54.5639 132.156 54.2389 131.895C53.9668 131.677 53.6803 131.546 53.3792 131.504C53.0721 131.468 52.7823 131.559 52.5097 131.775L50.9226 130.502C51.3544 130.041 51.829 129.751 52.3466 129.632C52.8642 129.513 53.39 129.531 53.9238 129.686C54.4441 129.843 54.9423 130.112 55.4185 130.494Z" fill="white"/>
<path d="M49.0353 124.62C49.4783 125.081 49.7949 125.523 49.9852 125.945C50.1687 126.359 50.2049 126.775 50.0938 127.19C49.969 127.606 49.6726 128.038 49.2045 128.488L46.8362 130.763L47.6215 131.581L46.3116 132.839L45.5263 132.022L44.0487 133.441L42.6392 131.974L44.1168 130.555L42.959 129.35L44.2689 128.091L45.4267 129.296L47.5855 127.222C47.816 127.001 47.9574 126.784 48.0096 126.573C48.0618 126.362 47.9469 126.109 47.665 125.816L47.222 125.355L48.532 124.096L49.0353 124.62Z" fill="white"/>
<path d="M44.9874 119.763L36.1035 124.952L35.0334 123.12L38.6469 115.506L32.6365 119.017L31.5884 117.223L40.4722 112.033L41.5131 113.815L37.9916 121.443L43.9392 117.968L44.9874 119.763Z" fill="white"/>
<path d="M38.566 106.556C38.8203 107.289 38.8963 107.98 38.7941 108.631C38.6828 109.285 38.405 109.858 37.9608 110.351C37.5074 110.847 36.9009 111.226 36.1413 111.49C35.3634 111.76 34.6429 111.841 33.9797 111.733C33.3043 111.619 32.7202 111.34 32.2275 110.896C31.7348 110.451 31.3645 109.872 31.1167 109.159C30.8624 108.426 30.7971 107.736 30.9208 107.088C31.0445 106.44 31.333 105.868 31.7864 105.373C32.2398 104.877 32.8554 104.494 33.6333 104.224C34.3929 103.96 35.1043 103.882 35.7674 103.99C36.4182 104.092 36.9838 104.363 37.4642 104.801C37.9413 105.23 38.3086 105.815 38.566 106.556ZM36.8184 107.194C36.6722 106.773 36.4631 106.466 36.1911 106.274C35.9191 106.081 35.6176 105.98 35.2866 105.972C34.9433 105.958 34.6069 106.008 34.2774 106.123C33.948 106.237 33.6529 106.406 33.3922 106.63C33.1283 106.845 32.9448 107.114 32.8416 107.437C32.726 107.754 32.7429 108.127 32.8923 108.557C33.0353 108.969 33.252 109.268 33.5423 109.455C33.8235 109.644 34.1357 109.746 34.479 109.76C34.8192 109.765 35.154 109.71 35.4834 109.596C35.8221 109.478 36.1187 109.314 36.3735 109.102C36.625 108.882 36.7978 108.611 36.8919 108.291C36.9859 107.972 36.9614 107.606 36.8184 107.194Z" fill="white"/>
<path d="M36.5148 99.8133L29.2383 103.208L28.9472 101.003L34.048 98.8932L28.5629 98.0931L28.2642 95.8313L33.3536 93.6347L27.8836 92.9499L27.5964 90.7745L35.5045 92.1634L35.8108 94.4829L30.8818 96.6729L36.2085 97.4939L36.5148 99.8133Z" fill="white"/>
<path d="M30.2772 82.2047L29.078 83.4306L28.1648 82.3047L27.6791 83.6746L26.14 82.9305L26.9281 81.7057L25.4792 81.6785L25.7194 79.966L27.1199 80.3385L26.6971 78.9586L28.3836 78.6522L28.4736 80.1028L29.6594 79.286L30.475 80.7944L29.1261 81.3096L30.2772 82.2047Z" fill="white"/>
<path d="M39.9144 68.7354C39.5046 69.7086 38.9585 70.4563 38.2762 70.9783C37.5887 71.4877 36.8081 71.7687 35.9345 71.8213C35.0646 71.865 34.1476 71.6838 33.1833 71.2777C32.2012 70.8641 31.4192 70.3246 30.8375 69.6592C30.2595 68.9848 29.9125 68.2238 29.7964 67.376C29.6715 66.5245 29.8101 65.621 30.2124 64.6657C30.517 63.9425 30.9145 63.3478 31.4052 62.8816C31.8869 62.4117 32.4421 62.1042 33.0709 61.959C33.6945 61.8011 34.3733 61.8242 35.1073 62.0282L34.329 63.8764C33.8427 63.8082 33.3993 63.9001 32.9989 64.1519C32.5933 64.3911 32.2684 64.8009 32.024 65.3812C31.7533 66.0241 31.6844 66.5995 31.8174 67.1075C31.9452 67.6028 32.2055 68.0331 32.5983 68.3982C32.9823 68.7596 33.4287 69.0474 33.9376 69.2618C34.4644 69.4836 35.002 69.6048 35.5504 69.6255C36.0988 69.6462 36.6012 69.5267 37.0575 69.2668C37.5176 68.998 37.8811 68.5467 38.148 67.9127C38.3059 67.5377 38.3933 67.1804 38.4103 66.8406C38.4183 66.4971 38.3546 66.1865 38.2193 65.9087C38.0877 65.6221 37.8896 65.381 37.6251 65.1855L38.4316 63.2703C39.0852 63.6402 39.5723 64.1186 39.8928 64.7055C40.2132 65.2925 40.3744 65.9332 40.3762 66.6278C40.3692 67.3186 40.2152 68.0211 39.9144 68.7354Z" fill="white"/>
<path d="M44.6521 59.9728C44.2196 60.6158 43.7125 61.0921 43.1308 61.4014C42.5412 61.7053 41.9159 61.8276 41.2552 61.7685C40.5864 61.704 39.9184 61.4473 39.2512 60.9986C38.5679 60.539 38.0703 60.0116 37.7583 59.4166C37.4438 58.808 37.316 58.1734 37.3752 57.5126C37.4343 56.8519 37.6747 56.208 38.0965 55.581C38.529 54.9379 39.0414 54.4711 39.6338 54.1806C40.2261 53.8902 40.8566 53.7772 41.5254 53.8418C42.1942 53.9063 42.8702 54.1684 43.5535 54.6279C44.2208 55.0767 44.7103 55.5986 45.0223 56.1937C45.3316 56.7754 45.4554 57.3898 45.3936 58.0371C45.3372 58.6764 45.0901 59.3216 44.6521 59.9728ZM43.0925 58.9588C43.3412 58.589 43.4608 58.2375 43.4515 57.9043C43.4421 57.571 43.3412 57.2697 43.1489 57.0002C42.9539 56.7173 42.7117 56.4785 42.4223 56.2838C42.1329 56.0892 41.8204 55.9549 41.4848 55.881C41.1547 55.799 40.8295 55.8138 40.5093 55.9254C40.1865 56.0235 39.898 56.2614 39.6439 56.6392C39.4005 57.001 39.2916 57.3539 39.3171 57.6979C39.3345 58.0365 39.4407 58.3473 39.6357 58.6302C39.8361 58.9051 40.081 59.1399 40.3704 59.3345C40.6678 59.5346 40.9776 59.6729 41.2997 59.7495C41.6273 59.818 41.9471 59.7937 42.2593 59.6768C42.5714 59.5598 42.8492 59.3205 43.0925 58.9588Z" fill="white"/>
<path d="M47.8225 55.4023L42.2927 50.1042L43.6097 48.7296L44.3201 49.2694C44.2787 48.9345 44.2993 48.6189 44.3821 48.3225C44.4645 48.0124 44.5819 47.7358 44.7343 47.4927C44.8934 47.2426 45.0534 47.0337 45.2143 46.8658C45.7236 46.3341 46.2345 46.032 46.7468 45.9594C47.2659 45.8797 47.7816 45.9646 48.294 46.214C48.806 46.4497 49.2999 46.7955 49.7756 47.2512L52.8291 50.1768L51.4216 51.6458L48.557 48.9012C48.3891 48.7404 48.2078 48.5935 48.0131 48.4606C47.8184 48.3277 47.6143 48.2328 47.4006 48.1757C47.1937 48.1116 46.9846 48.1058 46.7733 48.1583C46.562 48.2107 46.3525 48.3454 46.1447 48.5623C45.8766 48.8421 45.7221 49.1434 45.681 49.4664C45.64 49.7893 45.6948 50.1102 45.8455 50.429C45.9962 50.7478 46.215 51.0446 46.5018 51.3194L49.23 53.9333L47.8225 55.4023Z" fill="white"/>
<path d="M56.9605 46.908C56.4607 47.3069 55.9921 47.5816 55.5547 47.7324C55.1248 47.8771 54.708 47.8751 54.3042 47.7263C53.9019 47.564 53.4984 47.2291 53.0935 46.7217L51.045 44.1547L50.1591 44.8617L49.0261 43.4419L49.912 42.7349L48.634 41.1333L50.2242 39.8644L51.5022 41.4659L52.8085 40.4236L53.9415 41.8434L52.6352 42.8857L54.5024 45.2256C54.7018 45.4755 54.9044 45.6361 55.1101 45.7075C55.3157 45.7788 55.5776 45.6876 55.8956 45.4338L56.3954 45.035L57.5284 46.4548L56.9605 46.908Z" fill="white"/>
<path d="M60.3921 44.7133C60.0939 44.8941 59.7813 45.0326 59.4545 45.1288C59.1309 45.2117 58.8111 45.2356 58.4953 45.2005C58.1794 45.1654 57.8841 45.0613 57.6091 44.8881C57.3342 44.7149 57.0962 44.4627 56.8953 44.1313C56.6241 43.684 56.4993 43.2725 56.5208 42.8969C56.5373 42.513 56.6561 42.1577 56.8772 41.8311C57.0983 41.5044 57.3927 41.1957 57.7602 40.9049C58.1359 40.6091 58.5392 40.3306 58.97 40.0694L59.9144 39.4968C59.7687 39.2565 59.5951 39.0729 59.3935 38.9459C59.1951 38.8056 58.9788 38.7385 58.7446 38.7446C58.5053 38.7423 58.249 38.8241 57.9756 38.9899C57.8016 39.0953 57.6469 39.2232 57.5113 39.3733C57.379 39.5102 57.2842 39.6527 57.2267 39.8008C57.1692 39.9489 57.1641 40.0993 57.2113 40.252L55.4468 41.3218C55.2755 40.9272 55.2032 40.5462 55.2297 40.1789C55.2512 39.8033 55.3484 39.4498 55.5214 39.1183C55.6943 38.7869 55.9197 38.486 56.1976 38.2155C56.4787 37.9318 56.7932 37.6844 57.1412 37.4735C58.0938 36.8959 58.9637 36.7423 59.7509 37.0128C60.533 37.275 61.2254 37.9032 61.8281 38.8973L63.9678 42.4263L62.4021 43.3756L61.8649 42.5457C61.8336 42.9612 61.7256 43.3156 61.5409 43.6089C61.3644 43.8971 61.1661 44.1307 60.946 44.3095C60.7258 44.4882 60.5412 44.6228 60.3921 44.7133ZM59.9535 43.0929C60.2434 42.9171 60.4733 42.6983 60.6433 42.4367C60.8132 42.1751 60.9083 41.9022 60.9286 41.6179C60.9488 41.3337 60.8836 41.0674 60.733 40.8189L60.635 40.6573L59.4421 41.3806C59.2681 41.4861 59.1033 41.5973 58.9477 41.7143C58.8003 41.8263 58.6755 41.9474 58.5731 42.0774C58.4739 42.1942 58.4172 42.3249 58.4029 42.4695C58.3886 42.6141 58.4317 42.7693 58.5322 42.9349C58.6326 43.1006 58.7594 43.2163 58.9126 43.2821C59.069 43.3345 59.2394 43.3446 59.4236 43.3121C59.6029 43.2714 59.7795 43.1983 59.9535 43.0929Z" fill="white"/>
<path d="M68.9299 40.3852C68.2011 40.6761 67.5165 40.7772 66.8761 40.6886C66.2447 40.5963 65.6863 40.3341 65.2009 39.902C64.7119 39.4609 64.3202 38.8714 64.0257 38.1336C63.7277 37.3868 63.6086 36.6833 63.6685 36.0231C63.7247 35.3539 63.9528 34.7622 64.3525 34.248C64.7613 33.7302 65.3391 33.3223 66.0859 33.0242C66.6618 32.7944 67.2159 32.6932 67.7484 32.7206C68.2809 32.748 68.7593 32.9013 69.1837 33.1804C69.617 33.456 69.9693 33.8682 70.2405 34.4171L68.3915 35.1551C68.1848 34.8725 67.9358 34.7059 67.6444 34.6553C67.362 34.6011 67.0633 34.6369 66.7484 34.7626C66.3435 34.9242 66.0591 35.1524 65.8952 35.4473C65.7402 35.7387 65.6698 36.0588 65.6839 36.4078C65.7071 36.7533 65.7797 37.0789 65.9018 37.3849C66.0346 37.7178 66.2143 38.0112 66.4408 38.265C66.6637 38.5098 66.9298 38.68 67.2392 38.7756C67.5539 38.8586 67.9047 38.8229 68.2916 38.6685C68.6156 38.5392 68.8703 38.3541 69.0557 38.1132C69.2376 37.8633 69.3017 37.5665 69.248 37.2228L71.1375 36.4687C71.326 37.0715 71.3444 37.6274 71.1929 38.1364C71.0414 38.6454 70.7667 39.094 70.3689 39.4823C69.9764 39.858 69.4967 40.159 68.9299 40.3852Z" fill="white"/>
<path d="M77.1804 37.7315C76.5608 37.8891 76.0206 37.9465 75.5599 37.9038C75.1085 37.8587 74.7295 37.6852 74.4228 37.3833C74.1231 37.0697 73.8933 36.5984 73.7332 35.9693L72.9236 32.7865L71.8251 33.066L71.3772 31.3056L72.4757 31.0261L71.9706 29.0404L73.9422 28.5388L74.4474 30.5245L76.0669 30.1125L76.5148 31.8729L74.8952 32.2849L75.6332 35.1861C75.7121 35.4959 75.8305 35.7257 75.9885 35.8754C76.1466 36.0252 76.4228 36.0499 76.8171 35.9495L77.4368 35.7919L77.8846 37.5523L77.1804 37.7315Z" fill="white"/>
<path d="M83.3637 36.6242L83.2383 26.3364L85.3598 26.3106L90.1962 33.2128L90.1113 26.2526L92.1892 26.2273L92.3147 36.515L90.2513 36.5402L85.3576 29.7113L85.4416 36.5988L83.3637 36.6242Z" fill="white"/>
<path d="M98.0076 37.5467C97.245 37.4083 96.6055 37.1346 96.089 36.7257C95.5742 36.3073 95.2114 35.7836 95.0007 35.1545C94.7918 34.5159 94.7591 33.8011 94.9028 33.0099C95.0499 32.1997 95.3336 31.5324 95.7537 31.0081C96.1851 30.476 96.7154 30.1046 97.3444 29.8939C97.9735 29.6832 98.6597 29.6453 99.4032 29.7804C100.166 29.9188 100.799 30.2012 101.302 30.6274C101.806 31.0536 102.162 31.586 102.371 32.2246C102.58 32.8632 102.611 33.5876 102.464 34.3978C102.32 35.1889 102.038 35.8467 101.618 36.371C101.209 36.8875 100.696 37.2472 100.078 37.4501C99.4698 37.6548 98.7797 37.687 98.0076 37.5467ZM98.3114 35.7114C98.7498 35.791 99.1198 35.7598 99.4213 35.6176C99.7228 35.4754 99.9585 35.2622 100.128 34.978C100.309 34.6859 100.431 34.3683 100.493 34.0252C100.556 33.682 100.553 33.3419 100.487 33.0049C100.429 32.6695 100.285 32.3775 100.055 32.1289C99.8356 31.8725 99.502 31.7036 99.054 31.6222C98.625 31.5443 98.2581 31.586 97.9531 31.7472C97.6498 31.8989 97.4077 32.1208 97.2267 32.4128C97.0552 32.7066 96.9382 33.0251 96.8759 33.3682C96.8119 33.7209 96.8093 34.0602 96.8683 34.386C96.9369 34.7135 97.0873 34.9968 97.3195 35.2359C97.5518 35.475 97.8824 35.6335 98.3114 35.7114Z" fill="white"/>
<path d="M104.88 39.069L105.496 31.0635L107.559 31.8922L106.893 37.3719L110.283 32.9864L112.4 33.8369L111.815 39.349L115.097 34.9202L117.133 35.7381L112.04 41.9453L109.869 41.0732L110.382 35.704L107.051 39.9411L104.88 39.069Z" fill="white"/>
<path d="M123.294 42.3127L122.821 40.6646L124.251 40.4265L123.299 39.3277L124.706 38.3568L125.382 39.647L126.121 38.4005L127.492 39.4551L126.476 40.4889L127.885 40.8028L127.319 42.4206L126.013 41.7824L126.137 43.2169L124.423 43.1812L124.641 41.7538L123.294 42.3127Z" fill="white"/>
<g clip-path="url(#clip0_104_294)">
<path d="M93.8839 92.1552C91.9762 92.1552 90.0685 94.9245 89.207 96.3399C88.5916 96.6476 86.3147 96.1552 83.6685 93.5091C81.0224 90.8629 80.5301 88.5245 80.8378 87.9706C82.2531 87.1091 85.0224 85.1399 85.0224 83.2937C84.9608 79.1706 78.0685 72.2783 73.9454 72.2783C70.1916 72.2783 62.4993 82.6783 78.4993 98.6783C94.3762 114.555 104.899 106.924 104.899 103.171C104.899 99.0476 98.007 92.1552 93.8839 92.1552ZM80.2224 96.9552C74.0685 90.8014 66.807 79.3552 74.1301 74.7399C76.9608 74.9245 82.4993 80.5245 82.4993 83.2322C82.3147 84.0937 79.4839 85.8783 79.1147 86.186C77.0224 88.2783 78.9301 92.3399 81.8839 95.2937C84.8378 98.2476 88.8993 100.155 90.9916 98.0629L91.1147 97.9399L91.1762 97.8168C92.0993 96.2783 93.3916 94.8014 93.8839 94.6783C96.6531 94.7399 102.192 100.278 102.376 103.109C97.8224 110.371 86.3762 103.048 80.2224 96.9552Z" fill="white"/>
<path d="M104.037 69.2012H91.2988C89.145 69.2012 87.3604 70.9858 87.3604 73.1396V82.0012C87.3604 84.155 89.0834 85.8781 91.1757 85.9396V89.2627C91.1757 90.2473 92.2834 90.8012 93.0834 90.3089L99.7296 86.0012H104.037C106.191 86.0012 107.976 84.2166 107.976 82.0627V73.1396C107.914 70.9858 106.191 69.2012 104.037 69.2012ZM105.453 81.9396C105.453 82.7396 104.776 83.4166 103.976 83.4166H99.3604C99.1142 83.4166 98.868 83.4781 98.6834 83.6012L93.6373 86.8627V84.5858C93.6373 83.9089 93.0834 83.355 92.4065 83.355H91.2988C90.4988 83.355 89.8219 82.6781 89.8219 81.8781V73.1396C89.8219 72.3396 90.4988 71.6627 91.2988 71.6627H104.037C104.837 71.6627 105.514 72.3396 105.514 73.1396V81.9396H105.453Z" fill="white"/>
<path d="M93.4536 76.2783H92.8997C92.2228 76.2783 91.6689 76.8322 91.6689 77.5091C91.6689 78.186 92.2228 78.7399 92.8997 78.7399H93.4536C94.1305 78.7399 94.6843 78.186 94.6843 77.5091C94.6843 76.8322 94.1305 76.2783 93.4536 76.2783Z" fill="white"/>
<path d="M97.9457 76.2783H97.3919C96.715 76.2783 96.1611 76.8322 96.1611 77.5091C96.1611 78.186 96.715 78.7399 97.3919 78.7399H97.9457C98.6227 78.7399 99.1765 78.186 99.1765 77.5091C99.1765 76.8322 98.6227 76.2783 97.9457 76.2783Z" fill="white"/>
<path d="M102.499 76.2783H101.946C101.269 76.2783 100.715 76.8322 100.715 77.5091C100.715 78.186 101.269 78.7399 101.946 78.7399H102.499C103.176 78.7399 103.73 78.186 103.73 77.5091C103.73 76.8322 103.176 76.2783 102.499 76.2783Z" fill="white"/>
</g>
<defs>
<clipPath id="clip0_104_294">
<rect width="40" height="40" fill="white" transform="translate(68.3457 68.7705)"/>
</clipPath>
</defs>
</svg>
