<svg width="30" height="31" viewBox="0 0 30 31" fill="none" xmlns="http://www.w3.org/2000/svg">
<g clip-path="url(#clip0_97_8675)">
<path d="M15 0.621094C8.92487 0.621094 4 5.54597 4 11.6211C4 17.5321 14.181 29.9156 14.6145 30.4396C14.7095 30.5545 14.8509 30.6211 15 30.6211C15.1491 30.6211 15.2905 30.5545 15.3855 30.4396C15.819 29.9156 26 17.5321 26 11.6211C26 5.54597 21.0751 0.621094 15 0.621094ZM15 29.3266C13.1185 26.9781 5 16.5571 5 11.6211C5.00631 6.10084 9.47981 1.62741 15 1.62109C20.5203 1.62741 24.9937 6.10084 25 11.6211C25 16.5561 16.8815 26.9776 15 29.3266Z" fill="#FF6600"/>
<path d="M21.8048 9.72487L15.3048 4.72488C15.1249 4.5865 14.8746 4.5865 14.6948 4.72488L8.19475 9.72487C7.97607 9.89344 7.93544 10.2074 8.104 10.4261C8.19863 10.5489 8.34475 10.6208 8.49975 10.6209H9.99975V16.1209C9.99975 16.397 10.2236 16.6209 10.4998 16.6209H19.4998C19.7759 16.6209 19.9998 16.397 19.9998 16.1209V10.6209H21.4998C21.7759 10.6207 21.9996 10.3967 21.9995 10.1206C21.9994 9.96562 21.9275 9.8195 21.8048 9.72487ZM15.9998 15.6209H13.9998V12.6209H15.9998V15.6209ZM19.4998 9.62087C19.2236 9.62087 18.9998 9.84475 18.9998 10.1209V15.6209H16.9998V12.1209C16.9998 11.8447 16.7759 11.6209 16.4998 11.6209H13.4998C13.2236 11.6209 12.9998 11.8447 12.9998 12.1209V15.6209H10.9998V10.1209C10.9998 9.84475 10.7759 9.62087 10.4998 9.62087H9.96975L14.9998 5.75187L20.0298 9.62087H19.4998Z" fill="#FF6600"/>
</g>
<defs>
<clipPath id="clip0_97_8675">
<rect width="30" height="30" fill="white" transform="translate(0 0.621094)"/>
</clipPath>
</defs>
</svg>
