<svg width="21" height="21" viewBox="0 0 21 21" fill="none" xmlns="http://www.w3.org/2000/svg">
<g clip-path="url(#clip0_167_1581)">
<path d="M20.2336 11.4639C20.2336 11.4638 20.2336 11.4637 20.2336 11.4636L16.4575 1.98222C16.3773 1.78076 16.149 1.68242 15.9475 1.76256C15.9474 1.76261 15.9472 1.76265 15.9471 1.76275L0.62802 7.86266C0.565546 7.88965 0.511367 7.93274 0.470977 7.98751C0.343577 8.05371 0.263093 8.18475 0.261719 8.32829V18.536C0.261719 18.7528 0.437508 18.9286 0.654324 18.9286H17.1437C17.3606 18.9286 17.5364 18.7528 17.5364 18.536V12.961L20.0145 11.974C20.2159 11.8937 20.314 11.6653 20.2336 11.4639ZM16.7511 18.1434H1.04693V8.7209H16.7511V18.1434ZM6.81234 7.93765L13.3861 5.31819C13.9728 5.93487 14.7858 6.28537 15.6369 6.28871L16.2926 7.93765H6.81234ZM17.5364 12.1177V8.32829C17.5364 8.11148 17.3606 7.93569 17.1437 7.93569H17.1375L16.3055 5.84624C16.2963 5.82882 16.2856 5.81223 16.2733 5.79677C16.2312 5.60768 16.0561 5.47866 15.8631 5.49447C15.0711 5.56666 14.2963 5.23304 13.8046 4.60796C13.6823 4.45696 13.4672 4.41941 13.3009 4.52002C13.2823 4.52223 13.2638 4.52566 13.2456 4.53023L5.21993 7.72604C5.12281 7.76412 5.04512 7.83965 5.00439 7.93569H2.5671L15.8733 2.63748L19.3592 11.3906L17.5364 12.1177Z" fill="#FF6600"/>
<path d="M2.11235 15.4929C2.87459 15.7182 3.47106 16.314 3.6973 17.0759C3.74691 17.2422 3.89988 17.3562 4.07341 17.3562C4.09378 17.355 4.114 17.3519 4.13388 17.3472C4.15149 17.3522 4.1695 17.3559 4.18766 17.3582H13.6102C13.6264 17.3561 13.6424 17.3528 13.6581 17.3484C13.8542 17.3961 14.0519 17.2758 14.0997 17.0797C14.0998 17.0789 14.1 17.0782 14.1002 17.0775C14.3258 16.3148 14.9224 15.7182 15.6851 15.4925C15.8701 15.436 15.985 15.2517 15.9544 15.0607C15.9597 15.0416 15.9635 15.0222 15.9658 15.0026V11.8617C15.9635 11.8421 15.9596 11.8226 15.954 11.8036C15.9848 11.6126 15.8698 11.4282 15.6847 11.3718C14.922 11.1462 14.3256 10.5494 14.1006 9.78642C14.0437 9.60018 13.8576 9.48495 13.6655 9.5171C13.6474 9.51204 13.6289 9.50836 13.6102 9.5061H4.18766C4.16789 9.50846 4.1483 9.51238 4.12916 9.51788C3.93821 9.48745 3.75398 9.60234 3.6973 9.78721C3.4715 10.5498 2.87499 11.1462 2.11235 11.3718C1.92739 11.4283 1.81245 11.6126 1.84302 11.8036C1.83792 11.8227 1.83424 11.8421 1.83203 11.8617V15.0026C1.83429 15.021 1.83797 15.0393 1.84302 15.0571C1.81083 15.2494 1.92601 15.4358 2.11235 15.4929ZM2.61724 12.0211C3.40559 11.7045 4.03042 11.0797 4.34706 10.2913H13.4504C13.7672 11.0797 14.3922 11.7045 15.1806 12.0211V14.8432C14.3925 15.1602 13.7678 15.7849 13.4508 16.573H4.34706C4.03008 15.7849 3.40535 15.1602 2.61724 14.8432V12.0211Z" fill="#FF6600"/>
<path d="M8.8986 15.7877C10.1996 15.7877 11.2542 14.7331 11.2542 13.4321C11.2542 12.1311 10.1996 11.0764 8.8986 11.0764C7.5976 11.0764 6.54297 12.1311 6.54297 13.4321C6.54424 14.7325 7.59814 15.7864 8.8986 15.7877ZM8.8986 11.8617C9.76591 11.8617 10.469 12.5648 10.469 13.4321C10.469 14.2994 9.76591 15.0025 8.8986 15.0025C8.03129 15.0025 7.32818 14.2994 7.32818 13.4321C7.32818 12.5648 8.03129 11.8617 8.8986 11.8617Z" fill="#FF6600"/>
<path d="M4.5811 14.0211C4.90632 14.0211 5.17 13.7574 5.17 13.4322C5.17 13.107 4.90632 12.8433 4.5811 12.8433C4.25587 12.8433 3.99219 13.107 3.99219 13.4322C3.99219 13.7575 4.25587 14.0211 4.5811 14.0211ZM4.5811 13.2359C4.6895 13.2359 4.7774 13.3238 4.7774 13.4322C4.7774 13.5406 4.6895 13.6285 4.5811 13.6285C4.47269 13.6285 4.38479 13.5406 4.38479 13.4322C4.38479 13.3238 4.47269 13.2359 4.5811 13.2359Z" fill="#FF6600"/>
<path d="M13.2178 14.0211C13.543 14.0211 13.8067 13.7574 13.8067 13.4322C13.8067 13.1069 13.543 12.8433 13.2178 12.8433C12.8926 12.8433 12.6289 13.1069 12.6289 13.4322C12.6289 13.7574 12.8926 14.0211 13.2178 14.0211ZM13.2178 13.2359C13.3262 13.2359 13.4141 13.3238 13.4141 13.4322C13.4141 13.5406 13.3262 13.6285 13.2178 13.6285C13.1094 13.6285 13.0215 13.5406 13.0215 13.4322C13.0215 13.3238 13.1094 13.2359 13.2178 13.2359Z" fill="#FF6600"/>
</g>
<defs>
<clipPath id="clip0_167_1581">
<rect width="20" height="20" fill="white" transform="translate(0.261719 0.331665)"/>
</clipPath>
</defs>
</svg>
