<svg width="31" height="31" viewBox="0 0 31 31" fill="none" xmlns="http://www.w3.org/2000/svg">
<g clip-path="url(#clip0_167_2541)">
<path d="M8.35883 22.742C8.60548 22.742 8.80549 22.542 8.80549 22.2954V16.2294H13.4062V22.2953C13.4062 22.542 13.6062 22.742 13.8529 22.742C14.0995 22.742 14.2995 22.542 14.2995 22.2953V15.7827C14.2995 15.536 14.0995 15.3361 13.8529 15.3361H8.35877C8.11212 15.3361 7.91211 15.5361 7.91211 15.7827V22.2954C7.91211 22.542 8.11212 22.742 8.35883 22.742Z" fill="white"/>
<path d="M11.9564 19.0438C11.7098 19.0438 11.5098 19.2438 11.5098 19.4905V20.3723C11.5098 20.6189 11.7098 20.8189 11.9564 20.8189C12.2031 20.8189 12.4031 20.6189 12.4031 20.3723V19.4905C12.4031 19.2438 12.2031 19.0438 11.9564 19.0438Z" fill="white"/>
<path d="M23.6705 19.431C23.6717 19.431 23.6726 19.4316 23.6738 19.4316C23.6749 19.4316 23.6758 19.431 23.677 19.431H26.0928C26.3395 19.431 26.5395 19.231 26.5395 18.9843V13.9287C26.5395 13.682 26.3394 13.482 26.0928 13.482H23.6814C23.6787 13.4819 23.6765 13.4805 23.6738 13.4805C23.6711 13.4805 23.6689 13.4819 23.6663 13.482H21.2513C21.0047 13.482 20.8047 13.682 20.8047 13.9287V18.9843C20.8047 19.231 21.0047 19.431 21.2513 19.431H23.6705ZM25.6461 18.5376H24.1204V14.3753H25.6461V18.5376ZM21.6979 14.3753H23.227V18.5377H21.6979V14.3753Z" fill="white"/>
<path d="M11.1017 12.5495C12.3817 12.5495 13.423 11.5082 13.423 10.2282C13.423 8.95294 12.3817 7.91559 11.1017 7.91559C9.82642 7.91559 8.78906 8.95288 8.78906 10.2282C8.78906 11.5082 9.82636 12.5495 11.1017 12.5495ZM11.1017 8.80897C11.889 8.80897 12.5296 9.4456 12.5296 10.2282C12.5296 11.0155 11.889 11.6561 11.1017 11.6561C10.3191 11.6561 9.68244 11.0155 9.68244 10.2282C9.68244 9.44566 10.3191 8.80897 11.1017 8.80897Z" fill="#1E1E1E"/>
<path d="M1.86665 24.5274H7.04906L1.59355 28.7397C1.39835 28.8904 1.36233 29.1709 1.51309 29.3663C1.66385 29.5617 1.94449 29.5975 2.13969 29.4468L8.51098 24.5274H12.5433L7.08787 28.7397C6.89267 28.8904 6.85665 29.1709 7.00741 29.3663C7.15841 29.5618 7.43922 29.5972 7.63401 29.4468L14.0053 24.5274H29.5608C29.8075 24.5274 30.0075 24.3274 30.0075 24.0807C30.0075 23.8341 29.8074 23.6341 29.5608 23.6341H29.2061V10.1335C29.2214 10.0278 29.1604 9.83559 29.0822 9.75618L24.7271 5.33407C24.6431 5.2488 24.5286 5.20083 24.4089 5.20083H20.5949V3.5635C21.3147 3.56338 21.9002 2.97785 21.9002 2.25792C21.9003 1.53798 21.3147 0.952393 20.5948 0.952393H17.919C17.199 0.952393 16.6135 1.53798 16.6135 2.25797C16.6135 2.97785 17.199 3.56344 17.9188 3.56356V5.20088H16.172C15.9253 5.20088 15.7254 5.4009 15.7254 5.64755C15.7254 5.89419 15.9254 6.09421 16.172 6.09421C23.7577 6.09711 15.807 6.09421 24.222 6.09421L27.6972 9.62294H20.2593C20.0126 9.62294 19.8126 9.82295 19.8126 10.0696C19.8126 10.3162 20.0126 10.5163 20.2593 10.5163H28.3129V23.634H18.9173V10.0714C18.9173 9.9436 18.8625 9.82167 18.7668 9.73704L11.3977 3.21238C11.3528 3.1727 11.2333 3.10593 11.1148 3.10239C10.9952 3.09874 10.8844 3.14225 10.8051 3.21261L2.3683 10.6928C2.18377 10.8564 2.16678 11.1386 2.33059 11.3233C2.49354 11.5072 2.77598 11.5254 2.96114 11.361L3.2959 11.0642V23.6341H1.86665C1.62 23.6341 1.41999 23.8341 1.41999 24.0807C1.41999 24.3275 1.62 24.5274 1.86665 24.5274ZM17.5068 2.25797C17.5068 2.0307 17.6917 1.84577 17.919 1.84577H20.5947C20.822 1.84577 21.0069 2.0307 21.0069 2.25797C21.0069 2.48525 20.822 2.67018 20.5947 2.67018C20.5335 2.67018 17.8231 2.67018 17.919 2.67018C17.6918 2.67018 17.5068 2.48525 17.5068 2.25797ZM18.8122 3.56356H19.7016V5.20088H18.8122V3.56356ZM11.1017 4.14352L18.0239 10.2725V23.6326H4.18928V10.2723C7.32988 7.48767 8.98647 6.01891 11.1017 4.14352Z" fill="white"/>
<path d="M15.2391 26.9999H13.8178C13.5711 26.9999 13.3711 27.1999 13.3711 27.4465C13.3711 27.6932 13.5711 27.8932 13.8178 27.8932H15.2391C15.4858 27.8932 15.6858 27.6932 15.6858 27.4465C15.6858 27.1999 15.4858 26.9999 15.2391 26.9999Z" fill="#1E1E1E"/>
<path d="M25.9147 27.4465C25.9147 27.1999 25.7147 26.9999 25.4681 26.9999H17.7631C17.5164 26.9999 17.3164 27.1999 17.3164 27.4465C17.3164 27.6932 17.5164 27.8932 17.7631 27.8932H25.4681C25.7147 27.8933 25.9147 27.6932 25.9147 27.4465Z" fill="#1E1E1E"/>
<path d="M14.4863 29.5096C14.4863 29.7563 14.6863 29.9563 14.933 29.9563H21.6157C21.8624 29.9563 22.0624 29.7563 22.0624 29.5096C22.0624 29.2629 21.8624 29.063 21.6157 29.063H14.933C14.6863 29.0629 14.4863 29.2629 14.4863 29.5096Z" fill="#1E1E1E"/>
<path d="M27.2345 25.8016C27.2345 25.555 27.0345 25.3549 26.7879 25.3549H21.6146C21.3679 25.3549 21.168 25.555 21.168 25.8016C21.168 26.0483 21.368 26.2483 21.6146 26.2483H26.7879C27.0346 26.2483 27.2345 26.0483 27.2345 25.8016Z" fill="#1E1E1E"/>
</g>
<defs>
<clipPath id="clip0_167_2541">
<rect width="29.7" height="29.7" fill="white" transform="translate(0.863281 0.60434)"/>
</clipPath>
</defs>
</svg>
