<svg width="21" height="21" viewBox="0 0 21 21" fill="none" xmlns="http://www.w3.org/2000/svg">
<path d="M12.9448 10.3887L9.40326 13.9303L7.57861 12.1057C7.33447 11.8615 6.93896 11.8615 6.69482 12.1057C6.45068 12.3498 6.45068 12.7453 6.69482 12.9894L8.96136 15.256C9.08344 15.3781 9.24335 15.4391 9.40326 15.4391C9.56317 15.4391 9.72308 15.3781 9.84515 15.256L13.8286 11.2725C14.0728 11.0284 14.0728 10.6329 13.8286 10.3887C13.5845 10.1446 13.189 10.1446 12.9448 10.3887Z" fill="#FF6600"/>
<path d="M15.8867 2.80664H14.9492V2.20667C14.9492 1.86151 14.6694 1.58167 14.3242 1.58167C13.9791 1.58167 13.6992 1.86151 13.6992 2.20667V2.80664H6.82422V2.20667C6.82422 1.86151 6.54437 1.58167 6.19922 1.58167C5.85406 1.58167 5.57422 1.86151 5.57422 2.20667V2.80664H4.63672C2.9137 2.80664 1.51172 4.20862 1.51172 5.93164V15.9567C1.51172 17.6797 2.9137 19.0817 4.63672 19.0817H15.8867C17.6097 19.0817 19.0117 17.6797 19.0117 15.9567V5.93164C19.0117 4.20862 17.6097 2.80664 15.8867 2.80664ZM2.76172 5.93164C2.76172 4.89771 3.60278 4.05664 4.63672 4.05664H5.57422V4.65631C5.57422 5.00146 5.85406 5.28131 6.19922 5.28131C6.54437 5.28131 6.82422 5.00146 6.82422 4.65631V4.05664H13.6992V4.65631C13.6992 5.00146 13.9791 5.28131 14.3242 5.28131C14.6694 5.28131 14.9492 5.00146 14.9492 4.65631V4.05664H15.8867C16.9207 4.05664 17.7617 4.89771 17.7617 5.93164V6.56274H2.76172V5.93164ZM15.8867 17.8317H4.63672C3.60278 17.8317 2.76172 16.9906 2.76172 15.9567V7.81274H17.7617V15.9567C17.7617 16.9906 16.9207 17.8317 15.8867 17.8317Z" fill="#FF6600"/>
</svg>
