<svg width="53" height="54" viewBox="0 0 53 54" fill="none" xmlns="http://www.w3.org/2000/svg">
<path d="M26.0084 36.5736C35.4169 36.5736 43.0441 28.9465 43.0441 19.5379C43.0441 10.1293 35.4169 2.5022 26.0084 2.5022C16.5998 2.5022 8.97266 10.1293 8.97266 19.5379C8.97266 28.9465 16.5998 36.5736 26.0084 36.5736Z" stroke="#FF6600" stroke-width="1.5" stroke-linecap="round" stroke-linejoin="round"/>
<path d="M26.008 27.1094C30.1895 27.1094 33.5794 23.7196 33.5794 19.538C33.5794 15.3564 30.1895 11.9666 26.008 11.9666C21.8264 11.9666 18.4365 15.3564 18.4365 19.538C18.4365 23.7196 21.8264 27.1094 26.008 27.1094Z" stroke="#1E1E1E" stroke-width="1.5" stroke-linecap="round" stroke-linejoin="round"/>
<path d="M22.7143 36.2707L19.3829 50.2779C19.317 50.5441 19.1951 50.7932 19.0254 51.0086C18.8557 51.224 18.642 51.4008 18.3986 51.5272C18.1418 51.6387 17.8647 51.6962 17.5847 51.6962C17.3047 51.6962 17.0276 51.6387 16.7708 51.5272L4.2022 46.0379C3.93857 45.9132 3.70659 45.7305 3.52368 45.5034C3.34078 45.2763 3.21169 45.0107 3.14612 44.7265C3.08055 44.4424 3.0802 44.1471 3.14508 43.8628C3.20997 43.5785 3.33841 43.3126 3.52077 43.085L13.2501 30.895" stroke="#FF6600" stroke-width="1.5" stroke-linecap="round" stroke-linejoin="round"/>
<path d="M30.2852 36.0815L33.6923 50.2779C33.7601 50.5486 33.8868 50.801 34.0635 51.017C34.2402 51.233 34.4625 51.4072 34.7144 51.5272C34.9643 51.6401 35.2353 51.6985 35.5094 51.6985C35.7836 51.6985 36.0546 51.6401 36.3044 51.5272L48.7973 46.0379C49.0649 45.9148 49.3001 45.7309 49.4841 45.5009C49.6681 45.2708 49.7959 45.001 49.8573 44.7129C49.9291 44.4311 49.9321 44.1362 49.8663 43.8529C49.8004 43.5696 49.6675 43.3063 49.4787 43.0851L39.333 30.1758" stroke="#FF6600" stroke-width="1.5" stroke-linecap="round" stroke-linejoin="round"/>
</svg>
