<svg width="31" height="31" viewBox="0 0 31 31" fill="none" xmlns="http://www.w3.org/2000/svg">
<path d="M25.4111 24.1022H4.92371C4.25778 24.1014 3.61936 23.8365 3.1485 23.3656C2.67764 22.8947 2.41281 22.2563 2.41211 21.5904V8.93756C2.41281 8.27163 2.67764 7.63318 3.1485 7.16228C3.61936 6.69137 4.25778 6.42648 4.92371 6.42572H25.4111C26.077 6.42648 26.7154 6.69137 27.1863 7.16228C27.6571 7.63318 27.922 8.27163 27.9227 8.93756V21.5904C27.922 22.2563 27.6571 22.8947 27.1863 23.3656C26.7154 23.8365 26.077 24.1014 25.4111 24.1022ZM4.92371 7.38572C4.51229 7.38617 4.11786 7.54981 3.82697 7.84075C3.53608 8.13169 3.37249 8.52615 3.37211 8.93756V21.5904C3.37249 22.0018 3.53608 22.3962 3.82697 22.6872C4.11786 22.9781 4.51229 23.1418 4.92371 23.1422H25.4111C25.8225 23.1418 26.2169 22.9781 26.5078 22.6872C26.7987 22.3962 26.9623 22.0018 26.9627 21.5904V8.93756C26.9623 8.52615 26.7987 8.13169 26.5078 7.84075C26.2169 7.54981 25.8225 7.38617 25.4111 7.38572H4.92371Z" fill="#FF6600"/>
<path d="M15.167 18.0886C15.05 18.0886 14.937 18.046 14.8493 17.9686L3.28125 7.75705L3.91653 7.03705L15.167 16.9692L26.418 7.03825L27.0533 7.75825L15.4853 17.9698C15.3973 18.047 15.284 18.0892 15.167 18.0886Z" fill="#FF6600"/>
<path d="M3.02148 22.5947L10.7927 13.7401L11.5147 14.3737L3.7434 23.2283L3.02148 22.5947Z" fill="#FF6600"/>
<path d="M18.8457 14.3642L19.5676 13.7306L27.339 22.5853L26.6171 23.2189L18.8457 14.3642Z" fill="#FF6600"/>
</svg>
