<svg width="21" height="21" viewBox="0 0 21 21" fill="none" xmlns="http://www.w3.org/2000/svg">
<g clip-path="url(#clip0_158_86)">
<path d="M17.2771 8.00431C17.2771 11.5615 10.8485 20.1472 10.8485 20.1472C10.8485 20.1472 4.41992 11.5615 4.41992 8.00431C4.41992 6.29935 5.09722 4.66421 6.30281 3.45862C7.5084 2.25303 9.14353 1.57574 10.8485 1.57574C12.5535 1.57574 14.1886 2.25303 15.3942 3.45862C16.5998 4.66421 17.2771 6.29935 17.2771 8.00431V8.00431Z" stroke="#FF6600" stroke-linecap="round" stroke-linejoin="round"/>
<path d="M10.8479 10.1472C12.0314 10.1472 12.9908 9.18778 12.9908 8.00431C12.9908 6.82085 12.0314 5.86146 10.8479 5.86146C9.66447 5.86146 8.70508 6.82085 8.70508 8.00431C8.70508 9.18778 9.66447 10.1472 10.8479 10.1472Z" stroke="#FF6600" stroke-linecap="round" stroke-linejoin="round"/>
</g>
<defs>
<clipPath id="clip0_158_86">
<rect width="20" height="20" fill="white" transform="translate(0.847656 0.861458)"/>
</clipPath>
</defs>
</svg>
