<svg width="31" height="31" viewBox="0 0 31 31" fill="none" xmlns="http://www.w3.org/2000/svg">
<path d="M28.2016 13.6782L29.3139 12.1755C29.3929 12.0686 29.4204 11.9325 29.3888 11.8034C29.3571 11.6743 29.2697 11.5661 29.1502 11.5081L27.4646 10.6893L28.1844 8.95539C28.2352 8.83235 28.2289 8.69325 28.1669 8.5759C28.105 8.45815 27.994 8.37438 27.864 8.34689L26.0323 7.95997L26.3165 6.10738C26.3368 5.97651 26.2975 5.84304 26.2094 5.74355C26.1215 5.64407 25.9967 5.5961 25.8613 5.59308L23.9875 5.65155L23.8233 3.78498C23.8118 3.65278 23.7418 3.53241 23.6322 3.45694C23.5229 3.38147 23.386 3.35926 23.2577 3.39412L21.4531 3.90059L20.847 2.1274C20.804 2.00176 20.7072 1.90146 20.5831 1.85436C20.4581 1.80679 20.3202 1.81729 20.2042 1.88313L18.57 2.80789L17.5562 1.23275C17.4844 1.12108 17.3665 1.04695 17.2345 1.03077C17.1039 1.01592 16.9706 1.05826 16.874 1.14986L15.5107 2.43746L14.1473 1.14974C14.0509 1.05815 13.9189 1.0158 13.7868 1.03065C13.6548 1.04678 13.5368 1.12097 13.4651 1.23263L12.4513 2.80778L10.8173 1.88307C10.7008 1.81724 10.563 1.80674 10.4384 1.8543C10.3143 1.90141 10.2175 2.00129 10.1745 2.12735L9.56835 3.90053L7.76356 3.39406C7.6353 3.35914 7.49858 3.38095 7.38906 3.45688C7.2796 3.53235 7.20958 3.65272 7.19798 3.78492L7.03376 5.65149L5.15999 5.59302C5.03238 5.59697 4.89977 5.64407 4.81189 5.74349C4.72378 5.84298 4.6845 5.97645 4.70481 6.10732L4.98899 7.95992L3.15733 8.34683C3.02734 8.37432 2.91631 8.45809 2.85436 8.57584C2.79241 8.69319 2.78608 8.83235 2.8369 8.95533L3.55666 10.6892L1.87113 11.508C1.75163 11.566 1.66415 11.6742 1.63254 11.8033C1.60092 11.9325 1.62842 12.069 1.70737 12.1754L2.8199 13.6782L1.378 14.8773C1.27591 14.9619 1.2168 15.088 1.2168 15.2206C1.2168 15.3532 1.27591 15.4792 1.378 15.5639L2.82031 16.763L1.70708 18.2701C1.62813 18.3766 1.60087 18.5131 1.63248 18.6422C1.66433 18.7708 1.7518 18.879 1.87107 18.937L3.55637 19.7558L2.83707 21.4858C2.78602 21.6084 2.79235 21.7476 2.8543 21.8653C2.91602 21.9827 3.02705 22.0668 3.15727 22.0943L4.98893 22.4812L4.70475 24.3338C4.68445 24.4647 4.72372 24.5982 4.81183 24.6977C4.89971 24.7971 5.03168 24.849 5.15994 24.8481L7.0337 24.7897L7.19792 26.6562C7.20947 26.7884 7.27948 26.9088 7.389 26.9843C7.49846 27.0601 7.63548 27.0828 7.7635 27.0471L9.56899 26.5402L10.1788 28.3147C10.222 28.4404 10.3189 28.5403 10.4432 28.5874C10.5666 28.6341 10.7062 28.6232 10.8216 28.5581L12.4515 27.6334L13.465 29.2085C13.5367 29.3202 13.6547 29.3943 13.7867 29.4105C13.9189 29.4275 14.0508 29.383 14.1472 29.2914L15.5107 28.0038L16.874 29.2915C16.9573 29.3705 17.0673 29.4137 17.1807 29.4137C17.3374 29.4137 17.4766 29.3327 17.5563 29.2087L18.5698 27.6336L20.1997 28.5583C20.3148 28.6237 20.4538 28.6347 20.5781 28.5876C20.7021 28.5404 20.799 28.4406 20.8422 28.3149L21.4522 26.5439L23.2584 27.0473C23.386 27.0835 23.5234 27.0599 23.6326 26.9844C23.7417 26.909 23.8117 26.7886 23.8233 26.6564L23.9875 24.7908L25.8604 24.8523C25.9904 24.8649 26.121 24.8017 26.2091 24.7027C26.2972 24.6032 26.3367 24.4697 26.3164 24.3384L26.032 22.485L27.8648 22.0941C27.9945 22.0666 28.1053 21.9824 28.1671 21.8651C28.2288 21.7473 28.2351 21.6086 28.184 21.486L27.4648 19.756L29.1501 18.9372C29.2694 18.8792 29.3568 18.771 29.3886 18.6423C29.4203 18.5132 29.393 18.3767 29.314 18.2703L28.201 16.7632L29.6432 15.564C29.7453 15.4794 29.8044 15.3534 29.8044 15.2208C29.8044 15.0881 29.7453 14.9621 29.6432 14.8775L28.2016 13.6782ZM27.3058 16.3461C27.1237 16.4974 27.0914 16.7645 27.2321 16.9546L28.2764 18.3684L26.6953 19.1365C26.4824 19.2399 26.3871 19.4912 26.4781 19.7097L27.1529 21.3324L25.4335 21.6992C25.2022 21.7485 25.0492 21.9697 25.0852 22.2035L25.3519 23.9418L23.5942 23.8842C23.365 23.869 23.1554 24.0548 23.1347 24.2912L22.9805 26.0426L21.2869 25.5702C21.0594 25.5056 20.8215 25.6308 20.7447 25.855L20.1726 27.5156L18.6431 26.6481C18.4372 26.532 18.1757 26.5961 18.0472 26.7951L17.0963 28.2725L15.8174 27.0646C15.7315 26.9831 15.6211 26.9424 15.5107 26.9424C15.4004 26.9424 15.29 26.983 15.2041 27.0646L13.9251 28.2725L12.9742 26.7951C12.846 26.5961 12.5851 26.532 12.3784 26.6481L10.849 27.5157L10.2769 25.8511C10.1997 25.6273 9.96026 25.5026 9.73385 25.5663L8.04089 26.0413L7.88671 24.2912C7.866 24.0552 7.6675 23.8925 7.42804 23.8838L5.66948 23.9383L5.9362 22.1991C5.97216 21.9649 5.81885 21.7433 5.58699 21.6944L3.86897 21.3314L4.54337 19.7096C4.63433 19.4911 4.53902 19.2398 4.32613 19.1364L2.7453 18.3683L3.78962 16.9545C3.93029 16.7643 3.89803 16.4973 3.71589 16.346L2.36257 15.2206L3.71589 14.0952C3.89821 13.9438 3.93029 13.6764 3.78939 13.4862L2.74577 12.0764L4.32613 11.3086C4.53879 11.2053 4.6341 10.954 4.5436 10.7355L3.86857 9.10969L5.58705 8.74673C5.8189 8.69789 5.97222 8.4763 5.93625 8.24201L5.66953 6.50282L7.4281 6.55734C7.66738 6.56042 7.86606 6.38547 7.88677 6.1499L8.04095 4.3998L9.73391 4.87483C9.96072 4.9398 10.2005 4.81421 10.2772 4.58908L10.8458 2.92536L12.3787 3.79298C12.5852 3.91033 12.8463 3.8449 12.9743 3.64599L13.9252 2.16853L15.2042 3.37643C15.376 3.53955 15.6456 3.53955 15.8175 3.37643L17.0964 2.16853L18.0474 3.64599C18.1751 3.8449 18.4365 3.90993 18.643 3.79298L20.1758 2.92536L20.7444 4.58908C20.821 4.81375 21.0609 4.93846 21.2877 4.87483L22.9807 4.3998L23.1349 6.1499C23.1556 6.38547 23.3645 6.56082 23.5935 6.55734L25.3521 6.50282L25.0854 8.24201C25.0494 8.47624 25.2027 8.69783 25.4346 8.74673L27.1531 9.10969L26.478 10.7355C26.3875 10.954 26.4829 11.2053 26.6955 11.3086L28.2759 12.0764L27.2324 13.4862C27.0915 13.6764 27.1236 13.9438 27.3059 14.0952L28.6592 15.2206L27.3058 16.3461Z" fill="white"/>
<path d="M15.5097 11.0719C13.2211 11.0719 11.3594 12.9323 11.3594 15.2194C11.3594 17.5077 13.2211 19.3695 15.5097 19.3695C17.7983 19.3695 19.6603 17.5077 19.6603 15.2194C19.6603 12.9323 17.7983 11.0719 15.5097 11.0719ZM15.5097 18.4761C13.7139 18.4761 12.2528 17.0152 12.2528 15.2194C12.2528 13.4252 13.7139 11.9652 15.5097 11.9652C17.3058 11.9652 18.7669 13.4252 18.7669 15.2194C18.7669 17.0152 17.3058 18.4761 15.5097 18.4761Z" fill="#1E1E1E"/>
<path d="M15.5101 9.61841C16.318 9.61841 16.9754 8.96107 16.9754 8.15319C16.9754 7.34578 16.318 6.68884 15.5101 6.68884C14.7023 6.68884 14.0449 7.34578 14.0449 8.15319C14.0449 8.96101 14.7023 9.61841 15.5101 9.61841ZM15.5101 7.58216C15.8255 7.58216 16.082 7.83821 16.082 8.15319C16.082 8.46858 15.8255 8.72509 15.5101 8.72509C15.1948 8.72509 14.9382 8.46858 14.9382 8.15319C14.9382 7.83821 15.1948 7.58216 15.5101 7.58216Z" fill="white"/>
<path d="M15.5101 20.8229C14.7023 20.8229 14.0449 21.4799 14.0449 22.2873C14.0449 23.0952 14.7023 23.7525 15.5101 23.7525C16.318 23.7525 16.9754 23.0952 16.9754 22.2873C16.9754 21.4799 16.318 20.8229 15.5101 20.8229ZM15.5101 22.8592C15.1948 22.8592 14.9382 22.6027 14.9382 22.2873C14.9382 21.9724 15.1948 21.7162 15.5101 21.7162C15.8255 21.7162 16.082 21.9723 16.082 22.2873C16.082 22.6027 15.8255 22.8592 15.5101 22.8592Z" fill="white"/>
<path d="M22.5785 13.7554C21.7706 13.7554 21.1133 14.4127 21.1133 15.2206C21.1133 16.0285 21.7706 16.6858 22.5785 16.6858C23.3859 16.6858 24.0428 16.0285 24.0428 15.2206C24.0428 14.4127 23.3859 13.7554 22.5785 13.7554ZM22.5785 15.7925C22.2631 15.7925 22.0066 15.536 22.0066 15.2206C22.0066 14.9052 22.2631 14.6487 22.5785 14.6487C22.8934 14.6487 23.1495 14.9052 23.1495 15.2206C23.1495 15.536 22.8934 15.7925 22.5785 15.7925Z" fill="white"/>
<path d="M8.44373 13.7554C7.63586 13.7554 6.97852 14.4128 6.97852 15.2206C6.97852 16.0285 7.63586 16.6858 8.44373 16.6858C9.25115 16.6858 9.90808 16.0285 9.90808 15.2206C9.90808 14.4128 9.25115 13.7554 8.44373 13.7554ZM8.44373 15.7925C8.12835 15.7925 7.87184 15.536 7.87184 15.2206C7.87184 14.9052 8.12835 14.6487 8.44373 14.6487C8.75866 14.6487 9.01476 14.9052 9.01476 15.2206C9.01476 15.536 8.75866 15.7925 8.44373 15.7925Z" fill="white"/>
</svg>
