<svg width="21" height="21" viewBox="0 0 21 21" fill="none" xmlns="http://www.w3.org/2000/svg">
<g clip-path="url(#clip0_158_78)">
<path d="M13.3623 19.3198C14.242 19.8873 15.2904 20.1347 16.3311 20.0202C17.3717 19.9057 18.3412 19.4364 19.0766 18.6912L19.7194 18.0626C20.0013 17.7744 20.1591 17.3872 20.1591 16.9841C20.1591 16.5809 20.0013 16.1938 19.7194 15.9055L16.9909 13.2055C16.705 12.9246 16.3202 12.7671 15.9194 12.7671C15.5186 12.7671 15.1339 12.9246 14.848 13.2055V13.2055C14.5597 13.4873 14.1726 13.6451 13.7694 13.6451C13.3663 13.6451 12.9791 13.4873 12.6909 13.2055L8.40515 8.91978C8.26219 8.77889 8.14865 8.61098 8.07116 8.42582C7.99367 8.24066 7.95376 8.04193 7.95376 7.84121C7.95376 7.64049 7.99367 7.44176 8.07116 7.2566C8.14865 7.07144 8.26219 6.90353 8.40515 6.76264V6.76264C8.68609 6.47678 8.84351 6.09201 8.84351 5.69121C8.84351 5.29041 8.68609 4.90564 8.40515 4.61978L5.69087 1.90549C5.40259 1.62366 5.01545 1.46586 4.6123 1.46586C4.20914 1.46586 3.822 1.62366 3.53373 1.90549L2.90515 2.54835C2.15993 3.2837 1.69063 4.25321 1.57616 5.29388C1.46169 6.33454 1.70902 7.38289 2.27658 8.26264C5.23379 12.6208 8.99649 16.3738 13.3623 19.3198V19.3198Z" stroke="#FF6600" stroke-linecap="round" stroke-linejoin="round"/>
</g>
<defs>
<clipPath id="clip0_158_78">
<rect width="20" height="20" fill="white" transform="translate(0.847656 0.74835)"/>
</clipPath>
</defs>
</svg>
