<svg width="50" height="51" viewBox="0 0 50 51" fill="none" xmlns="http://www.w3.org/2000/svg">
<path d="M1.4501 45.7496C1.75635 45.8531 2.09482 45.7473 2.28945 45.4881C3.25957 44.1986 4.74043 43.4591 6.35303 43.4591H6.35635C7.96719 43.4599 9.44512 44.1994 10.4115 45.4875C10.6087 45.7507 10.9503 45.8512 11.2509 45.7497C11.5578 45.6476 11.7649 45.3604 11.7649 45.0366C11.7649 37.9534 11.7649 14.7188 11.7649 7.63472C11.7649 7.47173 11.7121 7.31382 11.6144 7.18384C10.3619 5.51314 8.44561 4.55405 6.35752 4.55327C6.35566 4.55249 6.35459 4.55249 6.35313 4.55249C4.26309 4.55249 2.34424 5.51157 1.0874 7.18296C0.989356 7.31294 0.936523 7.47153 0.936523 7.63462V45.0365C0.936426 45.3603 1.14346 45.6475 1.4501 45.7496ZM2.44043 33.841V26.6482C4.47363 24.1831 8.22822 24.1769 10.261 26.6474V33.8392C7.95205 32.1216 4.77646 32.1039 2.44043 33.841ZM10.2609 24.5084C7.95195 22.7908 4.77647 22.773 2.44033 24.5101V17.3173C4.47354 14.8522 8.22813 14.846 10.2609 17.3166V24.5084ZM6.35752 41.9551C6.35566 41.9551 6.35459 41.9551 6.35313 41.9551C4.91455 41.9551 3.55664 42.4089 2.44043 43.2374V35.979C4.47363 33.5138 8.22822 33.5077 10.261 35.9782V43.2351C9.14766 42.4089 7.79316 41.9558 6.35752 41.9551ZM6.35303 6.05649C6.3541 6.05649 6.35527 6.05649 6.35635 6.05728C7.88564 6.05806 9.29531 6.72485 10.2609 7.89468V15.1782C7.9709 13.4744 4.79502 13.4285 2.44033 15.1799V7.89536C3.40938 6.72407 4.82188 6.05649 6.35303 6.05649Z" fill="white"/>
<path d="M36.325 6.46328C36.7043 6.62627 37.1478 6.45225 37.3131 6.0711C37.4779 5.68926 37.302 5.24717 36.9206 5.08262C34.4088 3.99873 31.5473 4.59111 29.6617 6.49473C28.4362 5.25537 26.7861 4.55381 25.0066 4.55313C25.0051 4.55235 25.0037 4.55235 25.0022 4.55235C23.2201 4.55235 21.5658 5.25508 20.3367 6.49717C18.4565 4.59346 15.5933 4.00303 13.0732 5.08985C12.6921 5.2543 12.5162 5.69717 12.681 6.07832C12.8455 6.45947 13.2865 6.6335 13.6695 6.47051C15.7548 5.56875 18.152 6.15693 19.5826 7.89668V15.241C17.96 14.0337 15.8468 13.6364 13.8064 14.2327C13.408 14.3495 13.1797 14.7673 13.2964 15.1661C13.4124 15.5648 13.8313 15.7918 14.2294 15.6765C16.219 15.0913 18.2937 15.7452 19.5854 17.3276V24.5016C17.9614 23.2902 15.8497 22.884 13.8063 23.482C13.4079 23.5988 13.1796 24.0166 13.2963 24.4154C13.4123 24.8142 13.8312 25.0403 14.2293 24.9258C16.2138 24.342 18.2899 24.9816 19.5824 26.5539V33.8976C17.9591 32.691 15.8467 32.2923 13.8062 32.8893C13.4078 33.0061 13.1795 33.4238 13.2962 33.8227C13.4122 34.2214 13.8311 34.4483 14.2292 34.333C16.22 33.7483 18.2901 34.4015 19.5823 35.9804V43.2298C17.9597 42.0225 15.8466 41.6245 13.8061 42.2215C13.4077 42.3383 13.1794 42.7561 13.2961 43.1549C13.4121 43.5536 13.831 43.7798 14.2291 43.6652C16.2916 43.0594 18.4539 43.7731 19.7316 45.4843C19.7367 45.4911 19.7453 45.4935 19.7507 45.5001C20.0696 45.9034 20.6507 45.8695 20.9383 45.4879C21.9084 44.1983 23.3892 43.4589 25.0018 43.4589H25.0051C26.6093 43.4597 28.0812 44.1938 29.0479 45.4721C29.0489 45.4734 29.0502 45.4745 29.0512 45.476C29.0543 45.4799 29.0577 45.4832 29.0607 45.4872C29.0631 45.4903 29.0671 45.4914 29.0695 45.4945C29.4017 45.9195 30.0153 45.8412 30.2775 45.4657C31.5675 43.7737 33.7182 43.0628 35.7659 43.6579C36.165 43.7739 36.5818 43.544 36.6981 43.1461C36.8137 42.7474 36.5846 42.3302 36.1859 42.2142C34.1523 41.6227 32.0415 42.0251 30.4142 43.2335V35.978C31.7157 34.4045 33.7856 33.7508 35.7659 34.3256C36.165 34.4424 36.5818 34.2117 36.6981 33.8138C36.8137 33.415 36.5846 32.9979 36.1859 32.8818C34.1523 32.2896 32.0415 32.6935 30.4142 33.9012V26.653C31.7156 25.0789 33.7842 24.4258 35.7659 25.0014C36.165 25.1182 36.5818 24.8875 36.6981 24.4896C36.8137 24.0908 36.5846 23.6736 36.1859 23.5576C34.1523 22.9653 32.0408 23.3686 30.4142 24.5763V17.3218C31.7147 15.7473 33.7854 15.0935 35.7659 15.6691C36.165 15.7866 36.5818 15.5553 36.6981 15.1573C36.7288 15.0514 36.7321 14.9452 36.7175 14.8427C36.7078 14.5255 36.5071 14.2358 36.1859 14.1424C34.1506 13.5498 32.0417 13.9598 30.4142 15.1704V7.89414C31.8512 6.15733 34.2452 5.56504 36.325 6.46328ZM21.0895 17.3173C23.1202 14.8551 26.8719 14.8442 28.9072 17.3127V24.5061C26.5854 22.7813 23.4118 22.7836 21.0895 24.51V17.3173ZM21.0895 26.648C23.1202 24.1859 26.8719 24.175 28.9072 26.6435V33.8368C26.5854 32.112 23.4118 32.1144 21.0895 33.8407V26.648ZM25.0022 6.05645C25.0033 6.05645 25.0045 6.05645 25.0055 6.05723C26.5336 6.05801 27.9417 6.72354 28.9072 7.89102V15.1758C26.5899 13.4538 23.4165 13.4491 21.0895 15.1799V7.89531C22.0589 6.72402 23.4711 6.05645 25.0022 6.05645ZM25.0066 41.9551C25.0051 41.9551 25.0037 41.9551 25.0022 41.9551C23.5639 41.9551 22.2057 42.4089 21.0895 43.2373V35.9789C23.1202 33.5168 26.8719 33.5059 28.9072 35.9743V43.2338C27.7944 42.4083 26.4413 41.9558 25.0066 41.9551Z" fill="#FF6600"/>
<path d="M43.6556 4.55327C43.6545 4.55249 43.653 4.55249 43.6516 4.55249C41.5619 4.55249 39.6431 5.51157 38.3862 7.18296C38.2882 7.31294 38.2354 7.47153 38.2354 7.63462V45.0365C38.2354 45.3603 38.4421 45.6475 38.749 45.7496C39.0553 45.8531 39.3941 45.7473 39.5884 45.4881C40.5585 44.1986 42.039 43.4591 43.6516 43.4591H43.6549C45.2657 43.4599 46.7439 44.1994 47.7104 45.4875C47.8551 45.6806 48.0798 45.7885 48.3119 45.7885C48.3912 45.7885 48.4717 45.776 48.5498 45.7496C48.8567 45.6475 49.0639 45.3603 49.0639 45.0365C49.0639 32.5865 49.0639 20.1011 49.0639 7.63462C49.0639 7.47163 49.011 7.31372 48.9133 7.18374C47.6604 5.51314 45.7441 4.55405 43.6556 4.55327ZM47.5598 24.5085C45.2602 22.798 42.0844 22.7661 39.7392 24.5101V17.3172C41.7725 14.8519 45.527 14.8461 47.5598 17.3166V24.5085ZM39.7393 33.841V26.6481C41.7726 24.1828 45.527 24.177 47.5599 26.6474V33.8394C45.2602 32.1288 42.0845 32.0969 39.7393 33.841ZM43.6516 6.05649C43.6526 6.05649 43.6538 6.05649 43.6549 6.05728C45.1842 6.05806 46.5941 6.72485 47.5599 7.89468V15.1784C45.2793 13.4816 42.1032 13.4215 39.7393 15.1799V7.89536C40.7082 6.72329 42.1208 6.05649 43.6516 6.05649ZM43.6556 41.9551C43.6545 41.9551 43.653 41.9551 43.6516 41.9551C42.213 41.9551 40.8555 42.4089 39.7393 43.2374V35.979C41.7726 33.5136 45.527 33.5079 47.5599 35.9783V43.2359C46.4462 42.4089 45.0916 41.9558 43.6556 41.9551Z" fill="#FF6600"/>
</svg>
