<svg width="51" height="51" viewBox="0 0 51 51" fill="none" xmlns="http://www.w3.org/2000/svg">
<path d="M39.2361 46.8011C39.0709 46.6693 38.8591 46.6153 38.6482 46.6465C38.1511 46.7262 37.6268 46.7648 37.0451 46.7648C34.1616 46.7648 31.4588 45.6419 29.435 43.603C29.1427 43.3085 28.6668 43.3071 28.3716 43.599C28.0768 43.8916 28.0753 44.3678 28.3676 44.6627C30.6761 46.9881 33.7578 48.2688 37.0452 48.2688C37.5839 48.2688 38.0829 48.239 38.5606 48.1785C41.8439 50.6048 46.412 50.4961 49.5492 47.9009C49.753 47.7324 49.8532 47.4688 49.8129 47.2073C49.7729 46.9458 49.5981 46.7245 49.3528 46.6249C48.0732 46.1046 46.9155 45.3824 45.9024 44.4729C50.415 39.7586 50.4563 32.2245 45.786 27.4684C45.4945 27.1717 45.0187 27.1677 44.7227 27.4588C44.4264 27.7497 44.422 28.2258 44.7131 28.5222C49.0134 32.9023 48.719 39.8955 44.3136 43.924C44.163 44.0617 44.0749 44.2544 44.0694 44.4585C44.064 44.6623 44.1414 44.8599 44.2843 45.0053C45.2515 45.9909 46.3515 46.81 47.5669 47.4507C44.9751 48.934 41.6434 48.7225 39.2361 46.8011Z" fill="#1E1E1E"/>
<path d="M1.70605 41.3901C1.66562 41.6523 1.7666 41.9159 1.97119 42.0841C4.68945 44.3246 8.04365 45.4468 11.4045 45.4464C14.5945 45.446 17.7905 44.4348 20.45 42.4083C32.8916 44.0736 43.7961 34.3649 43.7961 22.011C43.7961 10.6578 34.5641 1.42139 23.2167 1.42139C11.8635 1.42139 2.62704 10.6578 2.62704 22.011C2.62704 27.4894 4.83193 32.7625 8.70165 36.6021C6.81953 38.3836 4.57421 39.83 2.1666 40.807C1.92079 40.9069 1.74609 41.1283 1.70605 41.3901ZM10.3197 37.1209C10.4622 36.9751 10.5396 36.7783 10.5342 36.5745C10.529 36.3707 10.4413 36.1779 10.2911 36.0402C6.37626 32.4474 4.13095 27.334 4.13095 22.0109C4.13095 11.4871 12.6929 2.9252 23.2167 2.9252C33.735 2.9252 42.2921 11.4871 42.2921 22.0109C42.2921 33.6774 31.8759 42.6146 20.3516 40.8752C20.1485 40.8447 19.9345 40.9005 19.7707 41.0309C15.1795 44.692 8.70712 44.8995 3.93163 41.6734C6.32001 40.5408 8.46435 39.0134 10.3197 37.1209Z" fill="#FF6600"/>
<path d="M30.012 28.7289V25.8489H22.252V24.7089L29.352 14.5889H31.452V24.5289H33.152V25.8489H31.452V28.7289H30.012ZM23.972 24.5289H30.012V15.8889L23.972 24.5289Z" fill="#FF6600"/>
<path d="M12.3398 28.7292V27.5292L16.5398 23.8292C16.9132 23.5092 17.3132 23.1625 17.7398 22.7892C18.1798 22.4025 18.5932 21.9892 18.9798 21.5492C19.3665 21.1092 19.6865 20.6425 19.9398 20.1492C20.1932 19.6559 20.3198 19.1359 20.3198 18.5892C20.3198 17.6559 20.0398 16.9492 19.4798 16.4692C18.9198 15.9759 18.1865 15.7292 17.2798 15.7292C16.5998 15.7292 15.9865 15.8692 15.4398 16.1492C14.8932 16.4159 14.5198 16.8359 14.3198 17.4092H12.7598C12.9198 16.7292 13.2265 16.1759 13.6798 15.7492C14.1332 15.3092 14.6798 14.9825 15.3198 14.7692C15.9598 14.5425 16.6398 14.4292 17.3598 14.4292C18.2265 14.4292 18.9932 14.5892 19.6598 14.9092C20.3265 15.2159 20.8465 15.6692 21.2198 16.2692C21.5932 16.8559 21.7798 17.5892 21.7798 18.4692C21.7798 19.3225 21.6132 20.0759 21.2798 20.7292C20.9465 21.3825 20.5132 21.9759 19.9798 22.5092C19.4465 23.0425 18.8798 23.5759 18.2798 24.1092L14.4398 27.4292H21.9398V28.7292H12.3398Z" fill="#FF6600"/>
</svg>
