<svg width="51" height="51" viewBox="0 0 51 51" fill="none" xmlns="http://www.w3.org/2000/svg">
<path d="M48.9516 38.2693V45.4121C48.9516 46.3593 48.5753 47.2678 47.9055 47.9375C47.2358 48.6073 46.3274 48.9836 45.3802 48.9836H38.2373" stroke="#FF6600" stroke-width="2" stroke-linecap="round" stroke-linejoin="round"/>
<path d="M38.2373 2.55499H45.3802C46.3274 2.55499 47.2358 2.93127 47.9055 3.60104C48.5753 4.27081 48.9516 5.17922 48.9516 6.12642V13.2693" stroke="#FF6600" stroke-width="2" stroke-linecap="round" stroke-linejoin="round"/>
<path d="M2.52344 13.2693V6.12642C2.52344 5.17922 2.89971 4.27081 3.56948 3.60104C4.23926 2.93127 5.14766 2.55499 6.09487 2.55499H13.2377" stroke="#FF6600" stroke-width="2" stroke-linecap="round" stroke-linejoin="round"/>
<path d="M13.2377 48.9836H6.09487C5.14766 48.9836 4.23926 48.6073 3.56948 47.9375C2.89971 47.2678 2.52344 46.3593 2.52344 45.4121V38.2693" stroke="#FF6600" stroke-width="2" stroke-linecap="round" stroke-linejoin="round"/>
<path d="M41.8089 25.7693C41.8089 25.7693 34.666 36.4836 25.7374 36.4836C16.8089 36.4836 9.66602 25.7693 9.66602 25.7693C9.66602 25.7693 16.8089 15.055 25.7374 15.055C34.666 15.055 41.8089 25.7693 41.8089 25.7693Z" stroke="#FF6600" stroke-width="2" stroke-linecap="round" stroke-linejoin="round"/>
<path d="M25.7379 27.555C26.7241 27.555 27.5236 26.7555 27.5236 25.7693C27.5236 24.7831 26.7241 23.9836 25.7379 23.9836C24.7516 23.9836 23.9521 24.7831 23.9521 25.7693C23.9521 26.7555 24.7516 27.555 25.7379 27.555Z" stroke="#FF6600" stroke-width="2" stroke-linecap="round" stroke-linejoin="round"/>
</svg>
