<svg width="30" height="31" viewBox="0 0 30 31" fill="none" xmlns="http://www.w3.org/2000/svg">
<g clip-path="url(#clip0_141_3882)">
<path d="M3.20462 29.7435H26.9498C28.2846 29.7435 29.3707 28.6576 29.3707 27.3226V11.1928C29.3707 10.3745 28.962 9.61569 28.2772 9.16311C28.0713 9.02656 27.7943 9.08353 27.6582 9.2894C27.5221 9.49509 27.5788 9.77231 27.7842 9.90817C28.2182 10.1952 28.4774 10.6753 28.4774 11.1928V27.3226C28.4774 28.1649 27.792 28.8502 26.9497 28.8502H3.20462C2.36189 28.8502 1.67658 28.1649 1.67658 27.3226V11.1928C1.67658 10.3505 2.36189 9.66517 3.20462 9.66517H24.4573C24.7042 9.66517 24.904 9.46516 24.904 9.21851C24.904 8.97186 24.7042 8.77185 24.4573 8.77185H3.20462C1.8694 8.77185 0.783203 9.85781 0.783203 11.1928V27.3226C0.783203 28.6576 1.86934 29.7435 3.20462 29.7435Z" fill="white"/>
<path d="M8.68978 15.8627C8.92099 15.7178 9.28871 15.6164 9.56569 15.8053C10.5053 16.4468 11.7729 16.4476 12.7195 15.8084C12.9507 15.6514 13.277 15.6529 13.5108 15.8104C13.9815 16.1288 14.532 16.2878 15.0825 16.2878C15.6356 16.2878 16.1891 16.127 16.6602 15.8056C16.8914 15.6477 17.2147 15.6489 17.4476 15.8071C18.388 16.447 19.6544 16.4479 20.5992 15.8082C20.8784 15.6191 21.2352 15.7133 21.4764 15.8642C21.6858 15.9951 21.9614 15.9311 22.0919 15.7222C22.2228 15.513 22.1591 15.2374 21.9501 15.1065C21.3386 14.7239 20.6284 14.7096 20.0984 15.0683C19.4537 15.5041 18.5904 15.5043 17.9501 15.0686C17.4131 14.7026 16.6921 14.7028 16.1568 15.0675C15.5165 15.5046 14.655 15.5052 14.0111 15.0703C13.4733 14.7074 12.7526 14.7072 12.2191 15.0683C11.5731 15.5048 10.7098 15.5046 10.0691 15.0672C9.53994 14.7061 8.8294 14.7209 8.21521 15.1059C8.00627 15.237 7.94304 15.5126 8.07431 15.7216C8.20512 15.9305 8.48037 15.9933 8.68978 15.8627Z" fill="#1E1E1E"/>
<path d="M23.4062 19.5598C23.4062 19.3131 23.2064 19.1131 22.9595 19.1131C22.6005 19.1131 22.2512 19.0132 21.9488 18.8246C21.3372 18.4418 20.6271 18.4276 20.0971 18.7864C19.4524 19.2222 18.5891 19.2224 17.9488 18.7866C17.4118 18.4207 16.6908 18.4209 16.1555 18.7855C15.5152 19.2224 14.6536 19.2235 14.0098 18.7884C13.472 18.4254 12.7513 18.4253 12.2178 18.7864C11.5718 19.2229 10.7085 19.2226 10.0678 18.7853C9.53863 18.4246 8.82809 18.4392 8.2139 18.8239C7.9125 19.0132 7.56178 19.1131 7.20057 19.1131C6.95368 19.1131 6.75391 19.3131 6.75391 19.5598C6.75391 19.8064 6.95368 20.0064 7.20057 20.0064C7.73012 20.0064 8.24442 19.8592 8.68847 19.5807C8.91969 19.4359 9.2874 19.3341 9.56439 19.5233C10.504 20.1648 11.7716 20.1657 12.7182 19.5264C12.9494 19.3694 13.2757 19.3709 13.5095 19.5284C14.453 20.1668 15.7189 20.165 16.6589 19.5236C16.8901 19.3659 17.2134 19.367 17.4463 19.5251C18.3867 20.165 19.653 20.1657 20.5979 19.5262C20.8771 19.3375 21.2339 19.4313 21.4755 19.5822C21.9196 19.8597 22.433 20.0064 22.9595 20.0064C23.2064 20.0065 23.4062 19.8065 23.4062 19.5598Z" fill="#1E1E1E"/>
<path d="M20.0984 22.5045C19.4537 22.9402 18.5904 22.9404 17.9501 22.5047C17.4131 22.139 16.6921 22.1387 16.1568 22.5036C15.5165 22.9404 14.6545 22.9418 14.0115 22.5067C13.4737 22.1435 12.7526 22.1431 12.2191 22.5045C11.5731 22.9409 10.7098 22.9407 10.0691 22.5034C9.53994 22.142 8.8294 22.1568 8.21521 22.542C8.00627 22.6731 7.94304 22.9487 8.07431 23.1577C8.20518 23.3666 8.48042 23.4295 8.68983 23.2988C8.92105 23.154 9.28876 23.0523 9.56575 23.2414C10.5054 23.8829 11.773 23.8838 12.7196 23.2445C12.9503 23.0877 13.2766 23.0879 13.5109 23.2469C14.464 23.8909 15.7299 23.8766 16.6603 23.2417C16.8915 23.084 17.2147 23.0853 17.4476 23.2432C18.3881 23.8831 19.6544 23.8838 20.5992 23.2443C20.8784 23.0557 21.2352 23.1494 21.4764 23.3003C21.6858 23.431 21.9615 23.3671 22.092 23.1583C22.2228 22.9491 22.1591 22.6735 21.9502 22.5426C21.3386 22.1599 20.6284 22.1459 20.0984 22.5045Z" fill="#1E1E1E"/>
<path d="M17.3689 1.60486C17.3689 1.85151 17.5687 2.05152 17.8155 2.05152H25.7991V16.4974C25.799 16.5013 25.7969 16.5044 25.7969 16.5082V26.1701H4.35627V12.3452H24.4569C24.7038 12.3452 24.9036 12.1452 24.9036 11.8986C24.9036 11.6519 24.7038 11.4519 24.4569 11.4519H3.90955C3.66267 11.4519 3.46289 11.6519 3.46289 11.8986V26.6168C3.46289 26.8635 3.66267 27.0634 3.90955 27.0634H26.2435C26.4904 27.0634 26.6902 26.8634 26.6902 26.6168V16.5186C26.6903 16.5148 26.6924 16.5117 26.6924 16.5078V1.60486C26.6924 1.35821 26.4926 1.1582 26.2458 1.1582H17.8155C17.5687 1.1582 17.3689 1.35821 17.3689 1.60486Z" fill="white"/>
</g>
<defs>
<clipPath id="clip0_141_3882">
<rect width="29.7" height="29.7" fill="white" transform="translate(0.226562 0.60083)"/>
</clipPath>
</defs>
</svg>
