<svg width="31" height="31" viewBox="0 0 31 31" fill="none" xmlns="http://www.w3.org/2000/svg">
<g clip-path="url(#clip0_141_3934)">
<path d="M28.153 10.4381H10.0206C9.30521 10.4381 8.65744 10.8887 8.40841 11.5587L4.88426 21.0437C4.46759 22.1666 5.29867 23.3626 6.49647 23.3626H24.6289C25.3443 23.3626 25.9921 22.912 26.2411 22.242L29.7653 12.757C30.182 11.6341 29.3509 10.4381 28.153 10.4381ZM28.9278 12.4455L25.4037 21.9305C25.2842 22.2528 24.9727 22.4692 24.629 22.4692H6.49647C5.91831 22.4692 5.5213 21.8951 5.72178 21.3551L9.24593 11.8701C9.36542 11.5478 9.67692 11.3314 10.0206 11.3314H28.153C28.7312 11.3315 29.1282 11.9055 28.9278 12.4455Z" fill="white"/>
<path d="M16.2015 17.2465H9.00532C8.81859 17.2465 8.65153 17.3625 8.58656 17.5375L7.47948 20.5129C7.37153 20.8025 7.58546 21.1153 7.89824 21.1153H15.0975C15.2842 21.1153 15.4513 20.9993 15.5162 20.8239L16.6203 17.8485C16.7286 17.5577 16.513 17.2465 16.2015 17.2465ZM14.7868 20.2219H8.54114L9.31583 18.1399H15.5593L14.7868 20.2219Z" fill="white"/>
<path d="M9.59317 16.5551H16.7919C16.9787 16.5551 17.1457 16.4391 17.2107 16.2638L18.3152 13.2879C18.3662 13.1509 18.3465 12.9978 18.2632 12.8774C18.1795 12.7575 18.0425 12.686 17.8964 12.686H10.7003C10.5136 12.686 10.3465 12.802 10.2815 12.9769L9.17446 15.9528C9.12342 16.0897 9.14308 16.2433 9.22638 16.3632C9.31009 16.4836 9.44704 16.5551 9.59317 16.5551ZM11.0109 13.5793H17.2544L16.4814 15.6618H10.2362L11.0109 13.5793Z" fill="white"/>
<path d="M25.0551 17.2465H17.8588C17.6721 17.2465 17.505 17.3625 17.4401 17.5375L16.333 20.5129C16.225 20.8025 16.439 21.1153 16.7518 21.1153H23.9505C24.1373 21.1153 24.3043 20.9993 24.3693 20.8239L25.4738 17.8485C25.5821 17.5579 25.3667 17.2465 25.0551 17.2465ZM23.64 20.2219H17.3947L18.1694 18.1399H24.4129L23.64 20.2219Z" fill="white"/>
<path d="M26.7503 12.6859H19.5541C19.3674 12.6859 19.2004 12.8019 19.1354 12.9769L18.0283 15.9527C17.9204 16.2424 18.1343 16.5551 18.4471 16.5551H25.6463C25.833 16.5551 26.0001 16.4391 26.0651 16.2638L27.1691 13.2879C27.2774 12.9971 27.0618 12.6859 26.7503 12.6859ZM25.3357 15.6617H19.09L19.8647 13.5792H26.1082L25.3357 15.6617Z" fill="white"/>
<path d="M14.4986 24.2542C14.2517 24.2542 14.052 24.4539 14.052 24.7008V26.5656H13.5316C12.1322 26.5656 10.9941 27.7036 10.9941 29.103C10.9941 29.3499 11.1939 29.5497 11.4408 29.5497H20.3818C20.6287 29.5497 20.8284 29.3499 20.8284 29.103C20.8284 27.7036 19.6904 26.5656 18.2914 26.5656H17.7728V24.7008C17.7728 24.4539 17.573 24.2542 17.3261 24.2542C17.0792 24.2542 16.8794 24.4539 16.8794 24.7008V26.5638H14.9453V24.7008C14.9453 24.4539 14.7455 24.2542 14.4986 24.2542ZM19.8736 28.6564H11.9489C12.1444 27.9663 12.7799 27.459 13.5315 27.459H18.2915C19.0431 27.459 19.6786 27.9663 19.8736 28.6564Z" fill="white"/>
<path d="M3.67578 5.41862C3.67578 6.55453 4.60362 7.47842 5.74388 7.47842C6.87932 7.47842 7.80321 6.55453 7.80321 5.41862C7.80321 4.27836 6.87932 3.35052 5.74388 3.35052C4.60362 3.35052 3.67578 4.27836 3.67578 5.41862ZM5.74382 4.2439C6.38678 4.2439 6.90983 4.77085 6.90983 5.41862C6.90983 6.06158 6.38683 6.58504 5.74382 6.58504C5.09604 6.58504 4.5691 6.06158 4.5691 5.41862C4.5691 4.77085 5.09604 4.2439 5.74382 4.2439Z" fill="#1E1E1E"/>
<path d="M6.18629 1.8194V1.40894C6.18629 1.16206 5.98651 0.96228 5.73963 0.96228C5.49275 0.96228 5.29297 1.16206 5.29297 1.40894V1.8194C5.29297 2.06628 5.49275 2.26606 5.73963 2.26606C5.98651 2.26612 6.18629 2.06634 6.18629 1.8194Z" fill="#1E1E1E"/>
<path d="M5.29297 9.00947V9.41993C5.29297 9.66681 5.49275 9.86659 5.73963 9.86659C5.98651 9.86659 6.18629 9.66681 6.18629 9.41993V9.00947C6.18629 8.76258 5.98651 8.56281 5.73963 8.56281C5.49275 8.56281 5.29297 8.76258 5.29297 9.00947Z" fill="#1E1E1E"/>
<path d="M8.25454 2.26627L7.96444 2.55677C7.79042 2.73167 7.79042 3.01434 7.96491 3.18883C8.13969 3.36273 8.42247 3.36291 8.59696 3.18836L8.88706 2.89786C9.06108 2.72296 9.06108 2.44029 8.88659 2.26581C8.71211 2.09219 8.42903 2.09178 8.25454 2.26627Z" fill="#1E1E1E"/>
<path d="M3.22391 8.56281L3.51401 8.27231C3.68803 8.09742 3.68803 7.81474 3.51355 7.64026C3.33906 7.46664 3.05598 7.46623 2.88149 7.64072L2.5914 7.93122C2.41737 8.10612 2.41737 8.38879 2.59186 8.56328C2.76658 8.73713 3.04943 8.7373 3.22391 8.56281Z" fill="#1E1E1E"/>
<path d="M9.33533 5.86134H9.7458C9.99268 5.86134 10.1925 5.66156 10.1925 5.41468C10.1925 5.1678 9.99268 4.96802 9.7458 4.96802H9.33533C9.08845 4.96802 8.88867 5.1678 8.88867 5.41468C8.88867 5.66156 9.08845 5.86134 9.33533 5.86134Z" fill="#1E1E1E"/>
<path d="M2.14383 4.96801H1.73377C1.48689 4.96801 1.28711 5.16779 1.28711 5.41467C1.28711 5.66155 1.48689 5.86133 1.73377 5.86133H2.14383C2.39071 5.86133 2.59049 5.66155 2.59049 5.41467C2.59049 5.16779 2.39077 4.96801 2.14383 4.96801Z" fill="#1E1E1E"/>
<path d="M7.96444 8.27226L8.25454 8.56276C8.42885 8.73707 8.7117 8.73725 8.88659 8.56322C9.06108 8.38874 9.06108 8.10606 8.88706 7.93117L8.59696 7.64067C8.42247 7.46618 8.1394 7.46664 7.96491 7.6402C7.79042 7.81469 7.79042 8.0973 7.96444 8.27226Z" fill="#1E1E1E"/>
<path d="M3.51401 2.55663L3.22391 2.26613C3.04943 2.09164 2.76635 2.0921 2.59186 2.26566C2.41737 2.44015 2.41737 2.72282 2.5914 2.89771L2.88149 3.18822C3.05581 3.36253 3.33865 3.36271 3.51355 3.18868C3.68809 3.01419 3.68809 2.73152 3.51401 2.55663Z" fill="#1E1E1E"/>
</g>
<defs>
<clipPath id="clip0_141_3934">
<rect width="29.7" height="29.7" fill="white" transform="translate(0.730469 0.406036)"/>
</clipPath>
</defs>
</svg>
