<svg width="51" height="51" viewBox="0 0 51 51" fill="none" xmlns="http://www.w3.org/2000/svg">
<path d="M38.2373 6.26929H12.2373C11.6379 6.28575 11.0508 6.44304 10.5234 6.72843C9.99606 7.01383 9.54325 7.41933 9.20163 7.91214L2.70162 16.9121C2.21897 17.5942 1.97793 18.4179 2.01675 19.2526C2.05557 20.0872 2.37203 20.885 2.91591 21.5193L22.4159 43.9836C22.7498 44.4137 23.1775 44.7619 23.6665 45.0013C24.1555 45.2408 24.6928 45.3653 25.2373 45.3653C25.7818 45.3653 26.3191 45.2408 26.8081 45.0013C27.2972 44.7619 27.7249 44.4137 28.0588 43.9836L47.5588 21.5193C48.1027 20.885 48.4191 20.0872 48.4579 19.2526C48.4968 18.4179 48.2557 17.5942 47.7731 16.9121L41.2731 7.91214C40.9314 7.41933 40.4786 7.01383 39.9513 6.72843C39.4239 6.44304 38.8368 6.28575 38.2373 6.26929V6.26929Z" stroke="#FF6600" stroke-width="2" stroke-linecap="round" stroke-linejoin="round"/>
<path d="M23.3803 6.23352L14.666 19.7335L25.2374 45.2692" stroke="#FF6600" stroke-width="2" stroke-linecap="round" stroke-linejoin="round"/>
<path d="M27.2016 6.23352L35.8802 19.7335L25.2373 45.2692" stroke="#FF6600" stroke-width="2" stroke-linecap="round" stroke-linejoin="round"/>
<path d="M2.09473 19.7335H48.3804" stroke="#FF6600" stroke-width="2" stroke-linecap="round" stroke-linejoin="round"/>
</svg>
