<svg width="51" height="51" viewBox="0 0 51 51" fill="none" xmlns="http://www.w3.org/2000/svg">
<path d="M11.8449 22.1979C17.2691 22.1979 21.6663 17.8007 21.6663 12.3765C21.6663 6.95226 17.2691 2.55505 11.8449 2.55505C6.42064 2.55505 2.02344 6.95226 2.02344 12.3765C2.02344 17.8007 6.42064 22.1979 11.8449 22.1979Z" stroke="#FF6600" stroke-width="2" stroke-linecap="round" stroke-linejoin="round"/>
<path d="M38.631 22.1979C44.0552 22.1979 48.4524 17.8007 48.4524 12.3765C48.4524 6.95226 44.0552 2.55505 38.631 2.55505C33.2068 2.55505 28.8096 6.95226 28.8096 12.3765C28.8096 17.8007 33.2068 22.1979 38.631 22.1979Z" stroke="#FF6600" stroke-width="2" stroke-linecap="round" stroke-linejoin="round"/>
<path d="M11.8449 48.9836C17.2691 48.9836 21.6663 44.5864 21.6663 39.1622C21.6663 33.738 17.2691 29.3408 11.8449 29.3408C6.42064 29.3408 2.02344 33.738 2.02344 39.1622C2.02344 44.5864 6.42064 48.9836 11.8449 48.9836Z" stroke="#FF6600" stroke-width="2" stroke-linecap="round" stroke-linejoin="round"/>
<path d="M38.631 48.9837C44.0552 48.9837 48.4524 44.5865 48.4524 39.1622C48.4524 33.738 44.0552 29.3408 38.631 29.3408C33.2068 29.3408 28.8096 33.738 28.8096 39.1622C28.8096 44.5865 33.2068 48.9837 38.631 48.9837Z" stroke="#FF6600" stroke-width="2" stroke-linecap="round" stroke-linejoin="round"/>
</svg>
