<svg width="31" height="31" viewBox="0 0 31 31" fill="none" xmlns="http://www.w3.org/2000/svg">
<g clip-path="url(#clip0_167_2567)">
<path d="M1.07377 28.0398C1.25752 28.1019 1.46061 28.0384 1.57738 27.8829C2.15945 27.1092 3.04797 26.6655 4.01553 26.6655H4.01752C4.98402 26.666 5.87078 27.1097 6.45062 27.8825C6.56893 28.0405 6.77389 28.1008 6.95424 28.0398C7.1384 27.9786 7.26268 27.8063 7.26268 27.612C7.26268 23.3621 7.26268 9.42132 7.26268 5.17087C7.26268 5.07308 7.23098 4.97833 7.17232 4.90034C6.42086 3.89792 5.27107 3.32247 4.01822 3.322C4.01711 3.32153 4.01646 3.32153 4.01559 3.32153C2.76156 3.32153 1.61025 3.89698 0.856152 4.89981C0.797324 4.9778 0.765625 5.07296 0.765625 5.17081V27.6119C0.765566 27.8062 0.889785 27.9785 1.07377 28.0398ZM1.66797 20.8946V16.579C2.88789 15.0999 5.14064 15.0962 6.36033 16.5785V20.8936C4.97494 19.863 3.06959 19.8524 1.66797 20.8946ZM6.36027 15.295C4.97488 14.2645 3.06959 14.2538 1.66791 15.2961V10.9804C2.88783 9.50136 5.14059 9.49767 6.36027 10.98V15.295ZM4.01822 25.7631C4.01711 25.7631 4.01646 25.7631 4.01559 25.7631C3.15244 25.7631 2.3377 26.0354 1.66797 26.5325V22.1774C2.88789 20.6983 5.14064 20.6946 6.36033 22.1769V26.5311C5.6923 26.0354 4.87961 25.7635 4.01822 25.7631ZM4.01553 4.22394C4.01617 4.22394 4.01687 4.22394 4.01752 4.2244C4.9351 4.22487 5.7809 4.62495 6.36027 5.32685V9.69694C4.98625 8.67466 3.08072 8.64712 1.66791 9.698V5.32726C2.24934 4.62448 3.09684 4.22394 4.01553 4.22394Z" fill="#1E1E1E"/>
<path d="M21.9989 4.46804C22.2265 4.56583 22.4926 4.46142 22.5917 4.23273C22.6906 4.00363 22.5851 3.73837 22.3563 3.63964C20.8492 2.98931 19.1323 3.34474 18.0009 4.48691C17.2656 3.74329 16.2756 3.32236 15.2079 3.32195C15.207 3.32148 15.2061 3.32148 15.2052 3.32148C14.136 3.32148 13.1434 3.74312 12.4059 4.48837C11.2778 3.34614 9.5599 2.99189 8.04783 3.64398C7.81914 3.74265 7.71362 4.00837 7.81252 4.23706C7.91119 4.46575 8.1758 4.57017 8.40561 4.47238C9.65676 3.93132 11.0951 4.28423 11.9535 5.32808V9.73468C10.9799 9.01029 9.71201 8.77193 8.48776 9.1297C8.24869 9.19978 8.1117 9.45044 8.18172 9.68974C8.25133 9.92898 8.5027 10.0651 8.74153 9.99595C9.93531 9.64486 11.1801 10.0372 11.9552 10.9867V15.291C10.9807 14.5642 9.71371 14.3205 8.4877 14.6793C8.24863 14.7494 8.11164 15 8.18166 15.2393C8.25127 15.4786 8.50264 15.6143 8.74147 15.5455C9.93221 15.1953 11.1779 15.5791 11.9533 16.5224V20.9286C10.9793 20.2047 9.7119 19.9654 8.48764 20.3236C8.24858 20.3937 8.11158 20.6444 8.1816 20.8837C8.25121 21.1229 8.50258 21.2591 8.74141 21.1899C9.9359 20.8391 11.178 21.2309 11.9533 22.1783V26.5279C10.9797 25.8035 9.71184 25.5648 8.48758 25.923C8.24852 25.993 8.11152 26.2437 8.18154 26.483C8.25115 26.7222 8.50252 26.8579 8.74135 26.7892C9.97885 26.4257 11.2762 26.854 12.0429 27.8806C12.0459 27.8847 12.0511 27.8861 12.0543 27.8901C12.2457 28.1321 12.5943 28.1118 12.7669 27.8828C13.3489 27.1091 14.2374 26.6654 15.205 26.6654H15.207C16.1695 26.6659 17.0526 27.1064 17.6327 27.8733C17.6332 27.8741 17.634 27.8748 17.6346 27.8757C17.6365 27.878 17.6385 27.88 17.6403 27.8824C17.6417 27.8843 17.6441 27.8849 17.6456 27.8868C17.8449 28.1418 18.2131 28.0948 18.3704 27.8695C19.1444 26.8543 20.4348 26.4277 21.6634 26.7848C21.9029 26.8544 22.153 26.7165 22.2228 26.4777C22.2922 26.2385 22.1547 25.9882 21.9155 25.9186C20.6953 25.5637 19.4288 25.8051 18.4524 26.5302V22.1769C19.2333 21.2328 20.4753 20.8405 21.6634 21.1854C21.9029 21.2555 22.153 21.1171 22.2228 20.8783C22.2922 20.6391 22.1547 20.3888 21.9155 20.3192C20.6953 19.9638 19.4288 20.2061 18.4524 20.9308V16.5819C19.2333 15.6374 20.4745 15.2455 21.6634 15.5909C21.9029 15.661 22.153 15.5226 22.2228 15.2838C22.2922 15.0446 22.1547 14.7942 21.9155 14.7246C20.6953 14.3693 19.4284 14.6112 18.4524 15.3358V10.9831C19.2327 10.0384 20.4752 9.64614 21.6634 9.99156C21.9029 10.062 22.153 9.92323 22.2228 9.68447C22.2412 9.62089 22.2432 9.5572 22.2344 9.49568C22.2286 9.30536 22.1082 9.13157 21.9155 9.0755C20.6942 8.71995 19.4289 8.96593 18.4524 9.69232V5.32656C19.3146 4.28447 20.751 3.92909 21.9989 4.46804ZM12.8576 10.9804C14.076 9.50312 16.3271 9.49661 17.5482 10.9777V15.2937C16.1552 14.2588 14.251 14.2602 12.8576 15.296V10.9804ZM12.8576 16.5789C14.076 15.1016 16.3271 15.0951 17.5482 16.5761V20.8922C16.1552 19.8573 14.251 19.8587 12.8576 20.8945V16.5789ZM15.2052 4.22394C15.2059 4.22394 15.2066 4.22394 15.2072 4.22441C16.124 4.22488 16.9689 4.62419 17.5482 5.32468V9.69554C16.1579 8.66236 14.2538 8.65954 12.8576 9.698V5.32726C13.4392 4.62448 14.2865 4.22394 15.2052 4.22394ZM15.2079 25.7631C15.207 25.7631 15.2061 25.7631 15.2052 25.7631C14.3423 25.7631 13.5273 26.0354 12.8576 26.5325V22.1774C14.076 20.7001 16.3271 20.6936 17.5482 22.1747V26.5303C16.8805 26.0351 16.0687 25.7635 15.2079 25.7631Z" fill="white"/>
<path d="M26.3967 3.32203C26.396 3.32156 26.3951 3.32156 26.3943 3.32156C25.1405 3.32156 23.9892 3.89701 23.2351 4.89985C23.1762 4.97783 23.1445 5.07299 23.1445 5.17084V27.612C23.1445 27.8063 23.2686 27.9786 23.4527 28.0398C23.6365 28.1019 23.8398 28.0385 23.9563 27.8829C24.5384 27.1092 25.4267 26.6655 26.3943 26.6655H26.3962C27.3628 26.666 28.2497 27.1097 28.8296 27.8825C28.9164 27.9984 29.0512 28.0632 29.1905 28.0632C29.238 28.0632 29.2863 28.0557 29.3332 28.0398C29.5174 27.9786 29.6416 27.8063 29.6416 27.612C29.6416 20.142 29.6416 12.6507 29.6416 5.17084C29.6416 5.07305 29.6099 4.9783 29.5513 4.90031C28.7996 3.89795 27.6498 3.3225 26.3967 3.32203ZM28.7392 15.2952C27.3594 14.2689 25.4539 14.2497 24.0468 15.2961V10.9804C25.2668 9.50121 27.5195 9.49776 28.7392 10.98V15.2952ZM24.0469 20.8946V16.5789C25.2669 15.0997 27.5195 15.0963 28.7392 16.5785V20.8937C27.3594 19.8673 25.454 19.8482 24.0469 20.8946ZM26.3943 4.22397C26.3949 4.22397 26.3956 4.22397 26.3962 4.22443C27.3138 4.2249 28.1598 4.62498 28.7392 5.32688V9.69709C27.3709 8.67903 25.4653 8.64299 24.0469 9.69803V5.32729C24.6282 4.62404 25.4758 4.22397 26.3943 4.22397ZM26.3967 25.7631C26.396 25.7631 26.3951 25.7631 26.3943 25.7631C25.5311 25.7631 24.7166 26.0354 24.0469 26.5325V22.1774C25.2669 20.6982 27.5195 20.6948 28.7392 22.177V26.5316C28.071 26.0354 27.2583 25.7636 26.3967 25.7631Z" fill="white"/>
</g>
<defs>
<clipPath id="clip0_167_2567">
<rect width="30" height="30" fill="white" transform="translate(0.203125 0.689972)"/>
</clipPath>
</defs>
</svg>
