<svg width="31" height="31" viewBox="0 0 31 31" fill="none" xmlns="http://www.w3.org/2000/svg">
<g clip-path="url(#clip0_141_3961)">
<path d="M10.3861 1.55974H4.02182C2.85019 1.55974 1.90039 2.50953 1.90039 3.68117V10.0455C1.90039 11.2171 2.85019 12.1669 4.02182 12.1669H10.3861C11.5577 12.1669 12.5075 11.2171 12.5075 10.0455V3.68117C12.5075 2.50953 11.5577 1.55974 10.3861 1.55974Z" stroke="white" stroke-width="1.5" stroke-linecap="round" stroke-linejoin="round"/>
<path d="M27.3568 1.55974H20.9925C19.8209 1.55974 18.8711 2.50953 18.8711 3.68117V10.0455C18.8711 11.2171 19.8209 12.1669 20.9925 12.1669H27.3568C28.5284 12.1669 29.4782 11.2171 29.4782 10.0455V3.68117C29.4782 2.50953 28.5284 1.55974 27.3568 1.55974Z" stroke="#1E1E1E" stroke-width="1.5" stroke-linecap="round" stroke-linejoin="round"/>
<path d="M10.3861 18.5312H4.02182C2.85019 18.5312 1.90039 19.481 1.90039 20.6526V27.0169C1.90039 28.1885 2.85019 29.1383 4.02182 29.1383H10.3861C11.5577 29.1383 12.5075 28.1885 12.5075 27.0169V20.6526C12.5075 19.481 11.5577 18.5312 10.3861 18.5312Z" stroke="#1E1E1E" stroke-width="1.5" stroke-linecap="round" stroke-linejoin="round"/>
<path d="M27.3568 18.5311H20.9925C19.8209 18.5311 18.8711 19.4809 18.8711 20.6526V27.0169C18.8711 28.1885 19.8209 29.1383 20.9925 29.1383H27.3568C28.5284 29.1383 29.4782 28.1885 29.4782 27.0169V20.6526C29.4782 19.4809 28.5284 18.5311 27.3568 18.5311Z" stroke="white" stroke-width="1.5" stroke-linecap="round" stroke-linejoin="round"/>
</g>
<defs>
<clipPath id="clip0_141_3961">
<rect width="29.7" height="29.7" fill="white" transform="translate(0.839844 0.499023)"/>
</clipPath>
</defs>
</svg>
