<svg width="21" height="21" viewBox="0 0 21 21" fill="none" xmlns="http://www.w3.org/2000/svg">
<g clip-path="url(#clip0_167_1592)">
<path d="M10.2617 20.3317C15.775 20.3317 20.2617 15.845 20.2617 10.3317C20.2617 4.81834 15.7751 0.331665 10.2617 0.331665C4.74834 0.331665 0.261719 4.81834 0.261719 10.3317C0.261719 15.845 4.7484 20.3317 10.2617 20.3317ZM10.2617 1.66498C15.0417 1.66498 18.9284 5.55163 18.9284 10.3317C18.9284 15.1117 15.0418 18.9984 10.2617 18.9984C5.48168 18.9984 1.59503 15.1117 1.59503 10.3317C1.59503 5.55163 5.48174 1.66498 10.2617 1.66498Z" fill="#FF6600"/>
<path d="M13.1771 13.5183C13.3004 13.6183 13.4471 13.665 13.5937 13.665C13.7904 13.665 13.9837 13.5783 14.1137 13.415C14.3437 13.1283 14.297 12.7083 14.0104 12.4783L10.9271 10.0117V4.99832C10.9271 4.63165 10.6271 4.33167 10.2604 4.33167C9.89373 4.33167 9.59375 4.63165 9.59375 4.99832V10.3317C9.59375 10.535 9.6871 10.725 9.84375 10.8517L13.1771 13.5183Z" fill="#FF6600"/>
</g>
<defs>
<clipPath id="clip0_167_1592">
<rect width="20" height="20" fill="white" transform="translate(0.261719 0.331665)"/>
</clipPath>
</defs>
</svg>
