<svg width="20" height="21" viewBox="0 0 20 21" fill="none" xmlns="http://www.w3.org/2000/svg">
<g clip-path="url(#clip0_158_18)">
<path d="M10.0011 14.0936C11.9736 14.0936 13.5725 12.4946 13.5725 10.5221C13.5725 8.54968 11.9736 6.9507 10.0011 6.9507C8.02867 6.9507 6.42969 8.54968 6.42969 10.5221C6.42969 12.4946 8.02867 14.0936 10.0011 14.0936Z" stroke="#FF6600" stroke-linecap="round" stroke-linejoin="round"/>
<path d="M3.90039 19.665C4.53788 18.6186 5.43383 17.7538 6.50212 17.1537C7.5704 16.5536 8.77509 16.2384 10.0004 16.2384C11.2257 16.2384 12.4304 16.5536 13.4987 17.1537C14.567 17.7538 15.4629 18.6186 16.1004 19.665" stroke="#FF6600" stroke-linecap="round" stroke-linejoin="round"/>
<path d="M19.2863 10.4364C19.2876 10.2381 19.2477 10.0417 19.169 9.85973C19.0903 9.67773 18.9746 9.5141 18.8292 9.37927L10.0006 1.23641L1.17202 9.37927C1.02663 9.5141 0.910895 9.67773 0.832191 9.85973C0.753487 10.0417 0.713535 10.2381 0.714876 10.4364V18.3793C0.714876 18.7582 0.865386 19.1215 1.1333 19.3894C1.4012 19.6573 1.76457 19.8078 2.14345 19.8078H17.8577C18.2366 19.8078 18.6 19.6573 18.8679 19.3894C19.1358 19.1215 19.2863 18.7582 19.2863 18.3793V10.4364Z" stroke="#FF6600" stroke-linecap="round" stroke-linejoin="round"/>
</g>
<defs>
<clipPath id="clip0_158_18">
<rect width="20" height="20" fill="white" transform="translate(0 0.522125)"/>
</clipPath>
</defs>
</svg>
