<svg width="51" height="51" viewBox="0 0 51 51" fill="none" xmlns="http://www.w3.org/2000/svg">
<path d="M46.7336 22.431L48.6062 19.9011C48.7392 19.7212 48.7854 19.492 48.7322 19.2747C48.679 19.0574 48.5317 18.8752 48.3306 18.7776L45.493 17.3992L46.7047 14.4801C46.7902 14.273 46.7796 14.0388 46.6753 13.8413C46.571 13.643 46.3841 13.502 46.1652 13.4557L43.0816 12.8043L43.5601 9.68549C43.5942 9.46518 43.5281 9.24047 43.3798 9.07299C43.2318 8.90551 43.0218 8.82475 42.7937 8.81967L39.6393 8.91811L39.3628 5.77572C39.3434 5.55316 39.2255 5.35053 39.0411 5.22348C38.8571 5.09643 38.6266 5.05902 38.4106 5.11772L35.3726 5.97035L34.3521 2.9852C34.2798 2.77367 34.1168 2.60482 33.9078 2.52553C33.6975 2.44545 33.4653 2.46313 33.27 2.57397L30.5187 4.1308L28.8121 1.47904C28.6913 1.29106 28.4927 1.16625 28.2705 1.139C28.0506 1.114 27.8262 1.18529 27.6636 1.33949L25.3685 3.50717L23.0732 1.3393C22.9109 1.1851 22.6888 1.11381 22.4663 1.13881C22.2441 1.16596 22.0455 1.29086 21.9247 1.47885L20.2181 4.13061L17.4671 2.57387C17.271 2.46303 17.039 2.44535 16.8293 2.52543C16.6204 2.60473 16.4573 2.77289 16.385 2.9851L15.3645 5.97025L12.3262 5.11762C12.1103 5.05883 11.8801 5.09555 11.6957 5.22338C11.5114 5.35043 11.3936 5.55307 11.374 5.77563L11.0976 8.91801L7.94307 8.81957C7.72822 8.82621 7.50498 8.90551 7.35703 9.07289C7.20869 9.24037 7.14258 9.46508 7.17676 9.68539L7.65518 12.8042L4.57158 13.4556C4.35273 13.5019 4.16582 13.6429 4.06152 13.8412C3.95723 14.0387 3.94658 14.273 4.03213 14.48L5.24385 17.3991L2.40625 18.7775C2.20508 18.8751 2.05781 19.0573 2.00459 19.2746C1.95137 19.492 1.99766 19.7219 2.13057 19.901L4.00352 22.4309L1.57607 24.4496C1.4042 24.5921 1.30469 24.8043 1.30469 25.0276C1.30469 25.2508 1.4042 25.463 1.57607 25.6055L4.0042 27.6243L2.13008 30.1615C1.99717 30.3407 1.95127 30.5705 2.00449 30.7878C2.05811 31.0044 2.20537 31.1866 2.40615 31.2842L5.24336 32.6626L4.03242 35.5751C3.94648 35.7815 3.95713 36.0158 4.06143 36.214C4.16533 36.4116 4.35225 36.5533 4.57148 36.5996L7.65508 37.2509L7.17666 40.3698C7.14248 40.5901 7.20859 40.8148 7.35693 40.9823C7.50488 41.1497 7.72705 41.2371 7.94297 41.2356L11.0975 41.1371L11.3739 44.2795C11.3934 44.5021 11.5112 44.7047 11.6956 44.8318C11.8799 44.9595 12.1105 44.9977 12.3261 44.9375L15.3656 44.0842L16.3923 47.0716C16.4649 47.2831 16.628 47.4513 16.8373 47.5306C17.0451 47.6092 17.2801 47.5909 17.4743 47.4814L20.2183 45.9246L21.9245 48.5763C22.0453 48.7643 22.2439 48.8891 22.4661 48.9164C22.6887 48.945 22.9107 48.8701 23.073 48.7159L25.3685 46.5482L27.6637 48.7161C27.8039 48.849 27.989 48.9217 28.1799 48.9217C28.4437 48.9217 28.678 48.7854 28.8122 48.5766L30.5185 45.9248L33.2624 47.4817C33.4562 47.5918 33.6901 47.6102 33.8994 47.5309C34.1083 47.4516 34.2714 47.2834 34.344 47.0719L35.3711 44.0904L38.4117 44.9378C38.6266 44.9988 38.8578 44.9591 39.0418 44.8321C39.2254 44.705 39.3433 44.5024 39.3627 44.2798L39.6392 41.139L42.7922 41.2425C43.011 41.2638 43.231 41.1574 43.3793 40.9907C43.5276 40.8232 43.5941 40.5985 43.56 40.3775L43.0811 37.2572L46.1666 36.5992C46.3851 36.5529 46.5716 36.4112 46.6755 36.2136C46.7794 36.0154 46.79 35.7818 46.7041 35.5754L45.4932 32.6629L48.3304 31.2845C48.5312 31.1869 48.6784 31.0047 48.732 30.7881C48.7853 30.5707 48.7394 30.3409 48.6064 30.1618L46.7327 27.6246L49.1605 25.6058C49.3324 25.4633 49.4319 25.2511 49.4319 25.0279C49.4319 24.8046 49.3324 24.5924 49.1605 24.4499L46.7336 22.431ZM45.2256 26.9224C44.9189 27.1772 44.8646 27.6267 45.1015 27.9468L46.8596 30.3269L44.1978 31.6201C43.8394 31.7941 43.679 32.2171 43.8321 32.585L44.9682 35.3168L42.0736 35.9344C41.6841 36.0174 41.4267 36.3897 41.4872 36.7833L41.9362 39.7098L38.9771 39.6128C38.5912 39.5872 38.2384 39.8999 38.2035 40.298L37.9439 43.2464L35.0928 42.4511C34.7098 42.3424 34.3092 42.5532 34.18 42.9306L33.2169 45.7263L30.6419 44.2658C30.2953 44.0704 29.855 44.1784 29.6388 44.5132L28.0379 47.0005L25.8848 44.967C25.7401 44.8297 25.5543 44.7614 25.3686 44.7614C25.1828 44.7614 24.997 44.8296 24.8523 44.967L22.6992 47.0005L21.0983 44.5132C20.8824 44.1784 20.4433 44.0704 20.0952 44.2658L17.5205 45.7264L16.5574 42.9241C16.4274 42.5473 16.0243 42.3373 15.6432 42.4446L12.7931 43.2443L12.5335 40.298C12.4986 39.9007 12.1645 39.6268 11.7613 39.6121L8.80078 39.7038L9.2498 36.7759C9.31035 36.3816 9.05225 36.0085 8.66191 35.9262L5.76963 35.3152L6.90498 32.5848C7.0581 32.2169 6.89766 31.7939 6.53926 31.6199L3.87793 30.3267L5.63603 27.9466C5.87285 27.6264 5.81855 27.177 5.51191 26.9222L3.23359 25.0276L5.51191 23.1329C5.81885 22.8782 5.87285 22.428 5.63564 22.1078L3.87871 19.7343L6.53926 18.4418C6.89726 18.2678 7.05771 17.8448 6.90537 17.4769L5.76894 14.7399L8.66201 14.1288C9.05234 14.0466 9.31045 13.6736 9.2499 13.2791L8.80088 10.3512L11.7614 10.443C12.1643 10.4482 12.4987 10.1537 12.5336 9.75707L12.7932 6.81078L15.6433 7.61049C16.0251 7.71986 16.4287 7.50844 16.5579 7.12943L17.5151 4.32856L20.0957 5.7892C20.4435 5.98676 20.8829 5.8766 21.0984 5.54174L22.6993 3.05443L24.8524 5.08793C25.1418 5.36254 25.5956 5.36254 25.885 5.08793L28.0381 3.05443L29.639 5.54174C29.8541 5.8766 30.294 5.98607 30.6417 5.7892L33.2223 4.32856L34.1795 7.12943C34.3084 7.50766 34.7123 7.71762 35.0941 7.61049L37.9442 6.81078L38.2038 9.75707C38.2387 10.1537 38.5904 10.4489 38.976 10.443L41.9365 10.3512L41.4875 13.2791C41.4269 13.6735 41.6851 14.0465 42.0754 14.1288L44.9685 14.7399L43.832 17.4769C43.6797 17.8448 43.8401 18.2678 44.1981 18.4418L46.8587 19.7343L45.102 22.1078C44.8648 22.428 44.9188 22.8781 45.2258 23.1329L47.5041 25.0276L45.2256 26.9224Z" fill="#FF6600"/>
<path d="M25.3699 18.0431C21.5171 18.0431 18.3828 21.1751 18.3828 25.0254C18.3828 28.8779 21.5171 32.0121 25.3699 32.0121C29.2228 32.0121 32.3574 28.8779 32.3574 25.0254C32.3574 21.1751 29.2228 18.0431 25.3699 18.0431ZM25.3699 30.5081C22.3466 30.5081 19.8868 28.0488 19.8868 25.0254C19.8868 22.005 22.3466 19.5471 25.3699 19.5471C28.3937 19.5471 30.8534 22.005 30.8534 25.0254C30.8534 28.0488 28.3937 30.5081 25.3699 30.5081Z" fill="#1E1E1E"/>
<path d="M25.3729 15.5964C26.733 15.5964 27.8396 14.4897 27.8396 13.1297C27.8396 11.7704 26.733 10.6644 25.3729 10.6644C24.0129 10.6644 22.9062 11.7704 22.9062 13.1297C22.9062 14.4896 24.0129 15.5964 25.3729 15.5964ZM25.3729 12.1683C25.9039 12.1683 26.3357 12.5994 26.3357 13.1297C26.3357 13.6606 25.9039 14.0925 25.3729 14.0925C24.842 14.0925 24.4102 13.6606 24.4102 13.1297C24.4102 12.5994 24.842 12.1683 25.3729 12.1683Z" fill="#FF6600"/>
<path d="M25.3729 34.4591C24.0129 34.4591 22.9062 35.5651 22.9062 36.9243C22.9062 38.2844 24.0129 39.391 25.3729 39.391C26.733 39.391 27.8396 38.2844 27.8396 36.9243C27.8396 35.5651 26.733 34.4591 25.3729 34.4591ZM25.3729 37.8871C24.842 37.8871 24.4102 37.4553 24.4102 36.9243C24.4102 36.3942 24.842 35.963 25.3729 35.963C25.9039 35.963 26.3357 36.3941 26.3357 36.9243C26.3357 37.4553 25.9039 37.8871 25.3729 37.8871Z" fill="#FF6600"/>
<path d="M37.2714 22.5609C35.9113 22.5609 34.8047 23.6676 34.8047 25.0276C34.8047 26.3877 35.9113 27.4943 37.2714 27.4943C38.6307 27.4943 39.7366 26.3877 39.7366 25.0276C39.7366 23.6676 38.6307 22.5609 37.2714 22.5609ZM37.2714 25.9904C36.7404 25.9904 36.3086 25.5586 36.3086 25.0276C36.3086 24.4967 36.7404 24.0648 37.2714 24.0648C37.8016 24.0648 38.2327 24.4967 38.2327 25.0276C38.2326 25.5586 37.8016 25.9904 37.2714 25.9904Z" fill="#FF6600"/>
<path d="M13.4745 22.561C12.1145 22.561 11.0078 23.6677 11.0078 25.0277C11.0078 26.3878 12.1145 27.4944 13.4745 27.4944C14.8338 27.4944 15.9397 26.3878 15.9397 25.0277C15.9397 23.6677 14.8338 22.561 13.4745 22.561ZM13.4745 25.9905C12.9436 25.9905 12.5117 25.5587 12.5117 25.0277C12.5117 24.4968 12.9436 24.0649 13.4745 24.0649C14.0047 24.0649 14.4358 24.4968 14.4358 25.0277C14.4358 25.5587 14.0047 25.9905 13.4745 25.9905Z" fill="#FF6600"/>
</svg>
