<svg width="51" height="51" viewBox="0 0 51 51" fill="none" xmlns="http://www.w3.org/2000/svg">
<path d="M1.97842 45.6184C2.28467 45.7219 2.62314 45.6161 2.81777 45.357C3.78789 44.0674 5.26875 43.328 6.88135 43.328H6.88467C8.49551 43.3287 9.97344 44.0682 10.9398 45.3563C11.137 45.6196 11.4786 45.7201 11.7792 45.6185C12.0861 45.5164 12.2933 45.2292 12.2933 44.9054C12.2933 37.8222 12.2933 14.5876 12.2933 7.50355C12.2933 7.34056 12.2404 7.18265 12.1427 7.05267C10.8902 5.38197 8.97393 4.42289 6.88584 4.42211C6.88398 4.42133 6.88291 4.42133 6.88145 4.42133C4.79141 4.42133 2.87256 5.38041 1.61572 7.05179C1.51768 7.18178 1.46484 7.34037 1.46484 7.50345V44.9053C1.46475 45.2291 1.67178 45.5163 1.97842 45.6184ZM2.96875 33.7098V26.517C5.00195 24.0519 8.75654 24.0457 10.7894 26.5162V33.708C8.48037 31.9905 5.30479 31.9727 2.96875 33.7098ZM10.7893 24.3772C8.48027 22.6596 5.30479 22.6418 2.96865 24.3789V17.1862C5.00186 14.721 8.75645 14.7149 10.7893 17.1854V24.3772ZM6.88584 41.824C6.88398 41.824 6.88291 41.824 6.88145 41.824C5.44287 41.824 4.08496 42.2778 2.96875 43.1062V35.8478C5.00195 33.3827 8.75654 33.3765 10.7894 35.847V43.1039C9.67598 42.2778 8.32148 41.8246 6.88584 41.824ZM6.88135 5.92533C6.88242 5.92533 6.88359 5.92533 6.88467 5.92611C8.41397 5.92689 9.82363 6.59369 10.7893 7.76351V15.047C8.49922 13.3432 5.32334 13.2973 2.96865 15.0488V7.7642C3.9377 6.59291 5.3502 5.92533 6.88135 5.92533Z" fill="#1E1E1E"/>
<path d="M36.8543 6.33218C37.2336 6.49517 37.6771 6.32114 37.8424 5.93999C38.0072 5.55816 37.8313 5.11607 37.4499 4.95152C34.9381 3.86763 32.0766 4.46001 30.191 6.36362C28.9655 5.12427 27.3154 4.42271 25.5359 4.42202C25.5344 4.42124 25.533 4.42124 25.5315 4.42124C23.7494 4.42124 22.0951 5.12398 20.866 6.36607C18.9858 4.46236 16.1226 3.87193 13.6025 4.95874C13.2214 5.12319 13.0455 5.56607 13.2103 5.94722C13.3748 6.32837 13.8158 6.50239 14.1988 6.33941C16.2841 5.43765 18.6813 6.02583 20.1119 7.76558V15.1099C18.4893 13.9026 16.3761 13.5053 14.3357 14.1016C13.9373 14.2184 13.709 14.6362 13.8257 15.035C13.9417 15.4337 14.3606 15.6607 14.7587 15.5454C16.7483 14.9602 18.823 15.6141 20.1147 17.1965V24.3705C18.4907 23.1591 16.379 22.7529 14.3356 23.3509C13.9372 23.4677 13.7089 23.8855 13.8256 24.2843C13.9416 24.6831 14.3605 24.9092 14.7586 24.7947C16.7431 24.2109 18.8192 24.8505 20.1117 26.4228V33.7665C18.4883 32.5599 16.3759 32.1612 14.3355 32.7582C13.9371 32.875 13.7088 33.2927 13.8255 33.6916C13.9415 34.0903 14.3604 34.3172 14.7585 34.2019C16.7493 33.6172 18.8194 34.2704 20.1116 35.8493V43.0987C18.489 41.8914 16.3758 41.4934 14.3354 42.0904C13.937 42.2072 13.7087 42.625 13.8254 43.0238C13.9414 43.4225 14.3603 43.6487 14.7584 43.5341C16.8209 42.9283 18.9832 43.642 20.2609 45.3532C20.266 45.36 20.2746 45.3624 20.28 45.369C20.5989 45.7723 21.18 45.7384 21.4675 45.3568C22.4377 44.0672 23.9185 43.3278 25.5311 43.3278H25.5344C27.1386 43.3286 28.6105 44.0627 29.5772 45.341C29.5782 45.3423 29.5795 45.3434 29.5805 45.3449C29.5836 45.3488 29.587 45.3521 29.59 45.3561C29.5924 45.3592 29.5964 45.3603 29.5988 45.3634C29.931 45.7884 30.5446 45.7101 30.8068 45.3346C32.0968 43.6426 34.2475 42.9317 36.2952 43.5268C36.6943 43.6428 37.1111 43.4129 37.2274 43.015C37.343 42.6163 37.1139 42.1991 36.7152 42.0831C34.6816 41.4916 32.5708 41.894 30.9435 43.1024V35.8469C32.245 34.2734 34.3149 33.6197 36.2952 34.1945C36.6943 34.3113 37.1111 34.0806 37.2274 33.6827C37.343 33.2839 37.1139 32.8668 36.7152 32.7507C34.6816 32.1584 32.5708 32.5624 30.9435 33.7701V26.5219C32.2449 24.9478 34.3135 24.2947 36.2952 24.8703C36.6943 24.9871 37.1111 24.7564 37.2274 24.3584C37.343 23.9597 37.1139 23.5425 36.7152 23.4265C34.6816 22.8342 32.5701 23.2375 30.9435 24.4452V17.1907C32.244 15.6162 34.3147 14.9624 36.2952 15.538C36.6943 15.6555 37.1111 15.4242 37.2274 15.0262C37.2581 14.9203 37.2614 14.8141 37.2467 14.7116C37.2371 14.3944 37.0364 14.1047 36.7152 14.0113C34.6799 13.4187 32.571 13.8287 30.9435 15.0393V7.76304C32.3805 6.02622 34.7745 5.43394 36.8543 6.33218ZM21.6188 17.1862C23.6495 14.724 27.4012 14.7131 29.4365 17.1816V24.375C27.1147 22.6501 23.9411 22.6525 21.6188 24.3789V17.1862ZM21.6188 26.5169C23.6495 24.0548 27.4012 24.0439 29.4365 26.5124V33.7057C27.1147 31.9809 23.9411 31.9833 21.6188 33.7096V26.5169ZM25.5315 5.92534C25.5326 5.92534 25.5338 5.92534 25.5348 5.92612C27.0629 5.92691 28.471 6.59243 29.4365 7.75991V15.0447C27.1192 13.3227 23.9458 13.318 21.6188 15.0488V7.76421C22.5882 6.59292 24.0004 5.92534 25.5315 5.92534ZM25.5359 41.824C25.5344 41.824 25.533 41.824 25.5315 41.824C24.0932 41.824 22.735 42.2778 21.6188 43.1062V35.8478C23.6495 33.3857 27.4012 33.3748 29.4365 35.8432V43.1027C28.3237 42.2772 26.9706 41.8247 25.5359 41.824Z" fill="#FF6600"/>
<path d="M44.1858 4.42217C44.1848 4.42139 44.1833 4.42139 44.1818 4.42139C42.0922 4.42139 40.1733 5.38047 38.9165 7.05186C38.8185 7.18184 38.7656 7.34043 38.7656 7.50352V44.9054C38.7656 45.2292 38.9724 45.5164 39.2793 45.6185C39.5855 45.722 39.9244 45.6162 40.1187 45.357C41.0888 44.0675 42.5692 43.328 44.1818 43.328H44.1852C45.796 43.3288 47.2742 44.0683 48.2407 45.3563C48.3854 45.5495 48.6101 45.6574 48.8422 45.6574C48.9215 45.6574 49.002 45.6449 49.0801 45.6185C49.387 45.5164 49.5941 45.2292 49.5941 44.9054C49.5941 32.4554 49.5941 19.97 49.5941 7.50352C49.5941 7.34053 49.5413 7.18262 49.4436 7.05264C48.1907 5.38203 46.2744 4.42295 44.1858 4.42217ZM48.09 24.3774C45.7904 22.6669 42.6146 22.635 40.2694 24.379V17.1861C42.3027 14.7208 46.0572 14.715 48.09 17.1855V24.3774ZM40.2695 33.7099V26.517C42.3028 24.0517 46.0573 24.0459 48.0901 26.5163V33.7083C45.7904 31.9977 42.6147 31.9658 40.2695 33.7099ZM44.1818 5.92539C44.1829 5.92539 44.1841 5.92539 44.1852 5.92617C45.7145 5.92695 47.1244 6.59375 48.0901 7.76357V15.0473C45.8096 13.3505 42.6335 13.2904 40.2695 15.0488V7.76426C41.2385 6.59219 42.6511 5.92539 44.1818 5.92539ZM44.1858 41.824C44.1848 41.824 44.1833 41.824 44.1818 41.824C42.7433 41.824 41.3857 42.2778 40.2695 43.1063V35.8479C42.3028 33.3825 46.0573 33.3768 48.0901 35.8472V43.1048C46.9765 42.2778 45.6219 41.8247 44.1858 41.824Z" fill="#FF6600"/>
</svg>
