<svg width="53" height="54" viewBox="0 0 53 54" fill="none" xmlns="http://www.w3.org/2000/svg">
<path d="M18.928 22.7293C23.6323 22.7293 27.4459 18.9157 27.4459 14.2115C27.4459 9.50718 23.6323 5.6936 18.928 5.6936C14.2237 5.6936 10.4102 9.50718 10.4102 14.2115C10.4102 18.9157 14.2237 22.7293 18.928 22.7293Z" stroke="#FF6600" stroke-width="1.5" stroke-linecap="round" stroke-linejoin="round"/>
<path d="M35.964 51.1222H1.89258V47.3365C1.89258 42.8183 3.68741 38.4852 6.88222 35.2904C10.077 32.0956 14.4101 30.3008 18.9283 30.3008C23.4464 30.3008 27.7795 32.0956 30.9744 35.2904C34.1692 38.4852 35.964 42.8183 35.964 47.3365V51.1222Z" stroke="#FF6600" stroke-width="1.5" stroke-linecap="round" stroke-linejoin="round"/>
<path d="M34.0703 5.6936C36.3294 5.6936 38.4959 6.59102 40.0933 8.18843C41.6908 9.78583 42.5882 11.9524 42.5882 14.2115C42.5882 16.4705 41.6908 18.6371 40.0933 20.2345C38.4959 21.8319 36.3294 22.7293 34.0703 22.7293" stroke="#1E1E1E" stroke-width="1.5" stroke-linecap="round" stroke-linejoin="round"/>
<path d="M40.127 31.02C43.3518 32.2468 46.1281 34.4238 48.0885 37.263C50.0489 40.1022 51.101 43.4698 51.1055 46.92V51.1222H45.427" stroke="#1E1E1E" stroke-width="1.5" stroke-linecap="round" stroke-linejoin="round"/>
</svg>
