<svg width="166" height="38" viewBox="0 0 166 38" fill="none" xmlns="http://www.w3.org/2000/svg">
<path d="M41.4752 31.2202V13.878L26.7178 0L20.2904 6.03174L13.8628 0L0 13.0366V38H41.4752L16.6753 14.7017L20.2895 11.31L41.4752 31.2202ZM26.715 5.2801L37.6268 15.542V22.3219L23.1011 8.67148L26.715 5.2801ZM3.84853 34.1516V19.9824L18.931 34.1516H3.84853ZM11.0529 14.7005L31.7578 34.1516H24.5524L3.84866 14.7005L13.8655 5.2801L17.4785 8.67048L11.0529 14.7005Z" fill="#FF6600"/>
<path d="M57.8622 29L65.9922 7.79H70.4622L78.5622 29H74.5122L73.1022 25.07H63.3222L61.8822 29H57.8622ZM64.5222 21.68H71.8722L68.2122 11.57L64.5222 21.68ZM83.2035 29L78.2535 13.19H82.3035L85.4835 24.98L88.8735 13.19H93.1935L96.5835 24.98L99.7335 13.19H103.724L98.7735 29H94.3935L90.9735 17.6L87.5835 29H83.2035ZM105.655 29V13.19H109.075L109.285 15.2C109.705 14.64 110.195 14.2 110.755 13.88C111.315 13.56 111.905 13.33 112.525 13.19C113.145 13.03 113.725 12.95 114.265 12.95C115.765 12.95 116.945 13.28 117.805 13.94C118.685 14.6 119.305 15.48 119.665 16.58C120.025 17.68 120.205 18.91 120.205 20.27V29H116.545V20.87C116.545 20.29 116.505 19.73 116.425 19.19C116.345 18.63 116.185 18.13 115.945 17.69C115.725 17.25 115.405 16.9 114.985 16.64C114.565 16.38 114.005 16.25 113.305 16.25C112.445 16.25 111.715 16.48 111.115 16.94C110.515 17.4 110.065 18.02 109.765 18.8C109.465 19.56 109.315 20.43 109.315 21.41V29H105.655ZM123.643 29V13.19H127.303V29H123.643ZM125.473 11.36C124.773 11.36 124.213 11.15 123.793 10.73C123.373 10.31 123.163 9.76 123.163 9.08C123.163 8.42 123.383 7.88 123.823 7.46C124.263 7.02 124.813 6.8 125.473 6.8C126.113 6.8 126.663 7.01 127.123 7.43C127.583 7.85 127.813 8.4 127.813 9.08C127.813 9.76 127.593 10.31 127.153 10.73C126.713 11.15 126.153 11.36 125.473 11.36ZM130.85 29V13.19H134.27L134.48 15.2C134.9 14.64 135.39 14.2 135.95 13.88C136.51 13.56 137.1 13.33 137.72 13.19C138.34 13.03 138.92 12.95 139.46 12.95C140.96 12.95 142.14 13.28 143 13.94C143.88 14.6 144.5 15.48 144.86 16.58C145.22 17.68 145.4 18.91 145.4 20.27V29H141.74V20.87C141.74 20.29 141.7 19.73 141.62 19.19C141.54 18.63 141.38 18.13 141.14 17.69C140.92 17.25 140.6 16.9 140.18 16.64C139.76 16.38 139.2 16.25 138.5 16.25C137.64 16.25 136.91 16.48 136.31 16.94C135.71 17.4 135.26 18.02 134.96 18.8C134.66 19.56 134.51 20.43 134.51 21.41V29H130.85ZM156.188 36.23C155.028 36.23 153.938 36.04 152.918 35.66C151.918 35.3 151.068 34.72 150.368 33.92C149.688 33.14 149.228 32.13 148.988 30.89H152.738C152.858 31.37 153.098 31.76 153.458 32.06C153.818 32.36 154.238 32.57 154.718 32.69C155.218 32.83 155.728 32.9 156.248 32.9C157.228 32.9 157.998 32.7 158.558 32.3C159.138 31.9 159.548 31.35 159.788 30.65C160.028 29.97 160.148 29.22 160.148 28.4V26.9C159.788 27.48 159.328 27.94 158.768 28.28C158.228 28.62 157.648 28.86 157.028 29C156.428 29.12 155.828 29.18 155.228 29.18C153.588 29.18 152.248 28.82 151.208 28.1C150.188 27.38 149.438 26.42 148.958 25.22C148.478 24 148.238 22.66 148.238 21.2C148.238 19.68 148.498 18.3 149.018 17.06C149.558 15.8 150.358 14.8 151.418 14.06C152.498 13.32 153.848 12.95 155.468 12.95C156.408 12.95 157.288 13.12 158.108 13.46C158.948 13.78 159.648 14.27 160.208 14.93L160.448 13.19H163.838V27.62C163.838 29.4 163.578 30.93 163.058 32.21C162.558 33.51 161.748 34.5 160.628 35.18C159.508 35.88 158.028 36.23 156.188 36.23ZM155.978 25.94C156.918 25.94 157.698 25.72 158.318 25.28C158.938 24.82 159.408 24.22 159.728 23.48C160.048 22.72 160.208 21.9 160.208 21.02C160.208 20.12 160.048 19.31 159.728 18.59C159.428 17.87 158.968 17.3 158.348 16.88C157.748 16.46 156.968 16.25 156.008 16.25C154.988 16.25 154.178 16.48 153.578 16.94C152.978 17.4 152.538 18.01 152.258 18.77C151.998 19.51 151.868 20.3 151.868 21.14C151.868 22.02 152.008 22.83 152.288 23.57C152.568 24.29 153.008 24.87 153.608 25.31C154.208 25.73 154.998 25.94 155.978 25.94Z" fill="white"/>
</svg>
