<svg width="50" height="51" viewBox="0 0 50 51" fill="none" xmlns="http://www.w3.org/2000/svg">
<g clip-path="url(#clip0_147_5126)">
<path d="M46.3742 22.431L48.2469 19.9011C48.3798 19.7212 48.4261 19.492 48.3728 19.2747C48.3196 19.0574 48.1724 18.8752 47.9712 18.7776L45.1336 17.3992L46.3453 14.4801C46.4309 14.273 46.4202 14.0388 46.3159 13.8413C46.2116 13.643 46.0247 13.502 45.8059 13.4557L42.7223 12.8043L43.2007 9.68549C43.2349 9.46518 43.1687 9.24047 43.0204 9.07299C42.8725 8.90551 42.6624 8.82475 42.4344 8.81967L39.2799 8.91811L39.0034 5.77572C38.984 5.55316 38.8661 5.35053 38.6817 5.22348C38.4977 5.09643 38.2672 5.05902 38.0513 5.11772L35.0132 5.97035L33.9928 2.9852C33.9204 2.77367 33.7574 2.60482 33.5484 2.52553C33.3381 2.44545 33.106 2.46313 32.9106 2.57397L30.1594 4.1308L28.4527 1.47904C28.3319 1.29106 28.1333 1.16625 27.9111 1.139C27.6912 1.114 27.4668 1.18529 27.3042 1.33949L25.0091 3.50717L22.7139 1.3393C22.5516 1.1851 22.3294 1.11381 22.1069 1.13881C21.8848 1.16596 21.6861 1.29086 21.5653 1.47885L19.8587 4.13061L17.1077 2.57387C16.9116 2.46303 16.6796 2.44535 16.4699 2.52543C16.261 2.60473 16.0979 2.77289 16.0256 2.9851L15.0052 5.97025L11.9668 5.11762C11.7509 5.05883 11.5207 5.09555 11.3363 5.22338C11.1521 5.35043 11.0342 5.55307 11.0146 5.77563L10.7382 8.91801L7.58369 8.81957C7.36885 8.82621 7.14561 8.90551 6.99766 9.07289C6.84932 9.24037 6.7832 9.46508 6.81738 9.68539L7.2958 12.8042L4.21221 13.4556C3.99336 13.5019 3.80645 13.6429 3.70215 13.8412C3.59785 14.0387 3.58721 14.273 3.67275 14.48L4.88447 17.3991L2.04688 18.7775C1.8457 18.8751 1.69844 19.0573 1.64521 19.2746C1.59199 19.492 1.63828 19.7219 1.77119 19.901L3.64414 22.4309L1.2167 24.4496C1.04482 24.5921 0.945312 24.8043 0.945312 25.0276C0.945312 25.2508 1.04482 25.463 1.2167 25.6055L3.64482 27.6243L1.7707 30.1615C1.63779 30.3407 1.59189 30.5705 1.64512 30.7878C1.69873 31.0044 1.846 31.1866 2.04678 31.2842L4.88398 32.6626L3.67305 35.5751C3.58711 35.7815 3.59775 36.0158 3.70205 36.214C3.80596 36.4116 3.99287 36.5533 4.21211 36.5996L7.2957 37.2509L6.81729 40.3698C6.78311 40.5901 6.84922 40.8148 6.99756 40.9823C7.14551 41.1497 7.36768 41.2371 7.58359 41.2356L10.7381 41.1371L11.0146 44.2795C11.034 44.5021 11.1519 44.7047 11.3362 44.8318C11.5205 44.9595 11.7512 44.9977 11.9667 44.9375L15.0062 44.0842L16.0329 47.0716C16.1056 47.2831 16.2687 47.4513 16.4779 47.5306C16.6857 47.6092 16.9207 47.5909 17.1149 47.4814L19.8589 45.9246L21.5651 48.5763C21.6859 48.7643 21.8846 48.8891 22.1067 48.9164C22.3293 48.945 22.5514 48.8701 22.7137 48.7159L25.0091 46.5482L27.3043 48.7161C27.4445 48.849 27.6296 48.9217 27.8205 48.9217C28.0844 48.9217 28.3187 48.7854 28.4528 48.5766L30.1591 45.9248L32.903 47.4817C33.0969 47.5918 33.3308 47.6102 33.54 47.5309C33.7489 47.4516 33.912 47.2834 33.9847 47.0719L35.0117 44.0904L38.0523 44.9378C38.2672 44.9988 38.4984 44.9591 38.6824 44.8321C38.866 44.705 38.9839 44.5024 39.0033 44.2798L39.2798 41.139L42.4328 41.2425C42.6517 41.2638 42.8716 41.1574 43.0199 40.9907C43.1683 40.8232 43.2348 40.5985 43.2006 40.3775L42.7218 37.2572L45.8072 36.5992C46.0257 36.5529 46.2122 36.4112 46.3161 36.2136C46.42 36.0154 46.4307 35.7818 46.3447 35.5754L45.1338 32.6629L47.971 31.2845C48.1719 31.1869 48.319 31.0047 48.3727 30.7881C48.4259 30.5707 48.38 30.3409 48.2471 30.1618L46.3733 27.6246L48.8012 25.6058C48.973 25.4633 49.0726 25.2511 49.0726 25.0279C49.0726 24.8046 48.973 24.5924 48.8012 24.4499L46.3742 22.431ZM44.8662 26.9224C44.5596 27.1772 44.5053 27.6267 44.7421 27.9468L46.5002 30.3269L43.8385 31.6201C43.4801 31.7941 43.3196 32.2171 43.4727 32.585L44.6088 35.3168L41.7143 35.9344C41.3247 36.0174 41.0673 36.3897 41.1278 36.7833L41.5769 39.7098L38.6178 39.6128C38.2318 39.5872 37.879 39.8999 37.8441 40.298L37.5846 43.2464L34.7334 42.4511C34.3504 42.3424 33.9498 42.5532 33.8206 42.9306L32.8575 45.7263L30.2825 44.2658C29.9359 44.0704 29.4956 44.1784 29.2794 44.5132L27.6785 47.0005L25.5254 44.967C25.3808 44.8297 25.1949 44.7614 25.0092 44.7614C24.8234 44.7614 24.6376 44.8296 24.493 44.967L22.3398 47.0005L20.739 44.5132C20.523 44.1784 20.0839 44.0704 19.7358 44.2658L17.1611 45.7264L16.198 42.9241C16.0681 42.5473 15.6649 42.3373 15.2838 42.4446L12.4337 43.2443L12.1741 40.298C12.1393 39.9007 11.8051 39.6268 11.402 39.6121L8.44141 39.7038L8.89043 36.7759C8.95098 36.3816 8.69287 36.0085 8.30254 35.9262L5.41025 35.3152L6.54561 32.5848C6.69873 32.2169 6.53828 31.7939 6.17988 31.6199L3.51855 30.3267L5.27666 27.9466C5.51348 27.6264 5.45918 27.177 5.15254 26.9222L2.87422 25.0276L5.15254 23.1329C5.45947 22.8782 5.51348 22.428 5.27627 22.1078L3.51934 19.7343L6.17988 18.4418C6.53789 18.2678 6.69834 17.8448 6.546 17.4769L5.40957 14.7399L8.30264 14.1288C8.69297 14.0466 8.95107 13.6736 8.89053 13.2791L8.4415 10.3512L11.4021 10.443C11.8049 10.4482 12.1394 10.1537 12.1742 9.75707L12.4338 6.81078L15.2839 7.61049C15.6657 7.71986 16.0693 7.50844 16.1985 7.12943L17.1558 4.32856L19.7363 5.7892C20.0841 5.98676 20.5235 5.8766 20.7391 5.54174L22.3399 3.05443L24.4931 5.08793C24.7824 5.36254 25.2362 5.36254 25.5256 5.08793L27.6787 3.05443L29.2796 5.54174C29.4947 5.8766 29.9347 5.98607 30.2823 5.7892L32.8629 4.32856L33.8201 7.12943C33.949 7.50766 34.3529 7.71762 34.7348 7.61049L37.5849 6.81078L37.8444 9.75707C37.8793 10.1537 38.2311 10.4489 38.6166 10.443L41.5771 10.3512L41.1281 13.2791C41.0676 13.6735 41.3257 14.0465 41.716 14.1288L44.6091 14.7399L43.4727 17.4769C43.3203 17.8448 43.4808 18.2678 43.8388 18.4418L46.4993 19.7343L44.7427 22.1078C44.5055 22.428 44.5595 22.8781 44.8664 23.1329L47.1447 25.0276L44.8662 26.9224Z" fill="#FF6600"/>
<path d="M25.0105 18.0431C21.1577 18.0431 18.0234 21.1751 18.0234 25.0254C18.0234 28.8779 21.1577 32.0121 25.0105 32.0121C28.8634 32.0121 31.998 28.8779 31.998 25.0254C31.998 21.1751 28.8634 18.0431 25.0105 18.0431ZM25.0105 30.5081C21.9872 30.5081 19.5274 28.0488 19.5274 25.0254C19.5274 22.005 21.9872 19.5471 25.0105 19.5471C28.0343 19.5471 30.494 22.005 30.494 25.0254C30.494 28.0488 28.0343 30.5081 25.0105 30.5081Z" fill="white"/>
<path d="M25.0097 15.5964C26.3697 15.5964 27.4764 14.4897 27.4764 13.1297C27.4764 11.7704 26.3697 10.6644 25.0097 10.6644C23.6496 10.6644 22.543 11.7704 22.543 13.1297C22.543 14.4896 23.6496 15.5964 25.0097 15.5964ZM25.0097 12.1683C25.5406 12.1683 25.9725 12.5994 25.9725 13.1297C25.9725 13.6606 25.5406 14.0925 25.0097 14.0925C24.4787 14.0925 24.0469 13.6606 24.0469 13.1297C24.0469 12.5994 24.4787 12.1683 25.0097 12.1683Z" fill="#FF6600"/>
<path d="M25.0097 34.4591C23.6496 34.4591 22.543 35.5651 22.543 36.9243C22.543 38.2844 23.6496 39.391 25.0097 39.391C26.3697 39.391 27.4764 38.2844 27.4764 36.9243C27.4764 35.5651 26.3697 34.4591 25.0097 34.4591ZM25.0097 37.8871C24.4787 37.8871 24.0469 37.4553 24.0469 36.9243C24.0469 36.3942 24.4787 35.963 25.0097 35.963C25.5406 35.963 25.9725 36.3941 25.9725 36.9243C25.9725 37.4553 25.5406 37.8871 25.0097 37.8871Z" fill="#FF6600"/>
<path d="M36.9081 22.5609C35.548 22.5609 34.4414 23.6676 34.4414 25.0276C34.4414 26.3877 35.548 27.4943 36.9081 27.4943C38.2674 27.4943 39.3733 26.3877 39.3733 25.0276C39.3733 23.6676 38.2674 22.5609 36.9081 22.5609ZM36.9081 25.9904C36.3771 25.9904 35.9453 25.5586 35.9453 25.0276C35.9453 24.4967 36.3771 24.0648 36.9081 24.0648C37.4383 24.0648 37.8694 24.4967 37.8694 25.0276C37.8693 25.5586 37.4383 25.9904 36.9081 25.9904Z" fill="#FF6600"/>
<path d="M13.1132 22.561C11.7531 22.561 10.6465 23.6677 10.6465 25.0277C10.6465 26.3878 11.7531 27.4944 13.1132 27.4944C14.4725 27.4944 15.5784 26.3878 15.5784 25.0277C15.5784 23.6677 14.4725 22.561 13.1132 22.561ZM13.1132 25.9905C12.5822 25.9905 12.1504 25.5587 12.1504 25.0277C12.1504 24.4968 12.5822 24.0649 13.1132 24.0649C13.6434 24.0649 14.0745 24.4968 14.0745 25.0277C14.0745 25.5587 13.6434 25.9905 13.1132 25.9905Z" fill="#FF6600"/>
</g>
<defs>
<clipPath id="clip0_147_5126">
<rect width="50" height="50" fill="white" transform="translate(0.0078125 0.0281982)"/>
</clipPath>
</defs>
</svg>
