<svg width="50" height="51" viewBox="0 0 50 51" fill="none" xmlns="http://www.w3.org/2000/svg">
<g clip-path="url(#clip0_147_5115)">
<path d="M38.4832 46.1558C38.318 46.024 38.1062 45.97 37.8953 46.0013C37.3981 46.0809 36.8738 46.1195 36.2922 46.1195C33.4087 46.1195 30.7059 44.9967 28.682 42.9577C28.3898 42.6633 27.9139 42.6618 27.6187 42.9537C27.3238 43.2464 27.3224 43.7226 27.6147 44.0175C29.9232 46.3429 33.0049 47.6235 36.2923 47.6235C36.831 47.6235 37.33 47.5937 37.8076 47.5332C41.0909 49.9596 45.6591 49.8509 48.7963 47.2557C49.0001 47.0871 49.1003 46.8235 49.06 46.562C49.0199 46.3006 48.8451 46.0792 48.5999 45.9797C47.3203 45.4594 46.1626 44.7371 45.1495 43.8276C49.6621 39.1134 49.7033 31.5792 45.0331 26.8231C44.7416 26.5265 44.2657 26.5225 43.9697 26.8136C43.6734 27.1044 43.669 27.5806 43.9602 27.8769C48.2605 32.257 47.9661 39.2503 43.5606 43.2787C43.4101 43.4164 43.322 43.6092 43.3165 43.8133C43.311 44.0171 43.3885 44.2146 43.5314 44.3601C44.4985 45.3456 45.5985 46.1647 46.814 46.8055C44.2222 48.2888 40.8904 48.0772 38.4832 46.1558Z" fill="white"/>
<path d="M0.954096 40.745C0.913666 41.0072 1.01464 41.2708 1.21923 41.4389C3.93749 43.6795 7.29169 44.8016 10.6525 44.8012C13.8426 44.8009 17.0386 43.7896 19.698 41.7632C32.1396 43.4285 43.0441 33.7198 43.0441 21.3659C43.0441 10.0127 33.8121 0.776245 22.4647 0.776245C11.1115 0.776245 1.87509 10.0127 1.87509 21.3659C1.87509 26.8442 4.07998 32.1174 7.9497 35.9569C6.06757 37.7385 3.82226 39.1848 1.41464 40.1619C1.16884 40.2618 0.994135 40.4832 0.954096 40.745ZM9.56777 36.4758C9.71025 36.33 9.78769 36.1332 9.78222 35.9294C9.77705 35.7256 9.68935 35.5328 9.53916 35.3951C5.62431 31.8022 3.379 26.6888 3.379 21.3658C3.379 10.842 11.9409 2.28005 22.4647 2.28005C32.983 2.28005 41.5401 10.842 41.5401 21.3658C41.5401 33.0323 31.1239 41.9694 19.5996 40.2301C19.3966 40.1996 19.1825 40.2553 19.0187 40.3857C14.4275 44.0468 7.95517 44.2544 3.17968 41.0283C5.56806 39.8957 7.7124 38.3682 9.56777 36.4758Z" fill="#FF6600"/>
<path d="M29.26 28.0838V25.2038H21.5V24.0638L28.6 13.9438H30.7V23.8838H32.4V25.2038H30.7V28.0838H29.26ZM23.22 23.8838H29.26V15.2438L23.22 23.8838Z" fill="#FF6600"/>
<path d="M11.5879 28.0841V26.8841L15.7879 23.1841C16.1612 22.8641 16.5612 22.5175 16.9879 22.1441C17.4279 21.7575 17.8412 21.3441 18.2279 20.9041C18.6146 20.4641 18.9346 19.9975 19.1879 19.5041C19.4412 19.0108 19.5679 18.4908 19.5679 17.9441C19.5679 17.0108 19.2879 16.3041 18.7279 15.8241C18.1679 15.3308 17.4346 15.0841 16.5279 15.0841C15.8479 15.0841 15.2346 15.2241 14.6879 15.5041C14.1412 15.7708 13.7679 16.1908 13.5679 16.7641H12.0079C12.1679 16.0841 12.4746 15.5308 12.9279 15.1041C13.3812 14.6641 13.9279 14.3375 14.5679 14.1241C15.2079 13.8975 15.8879 13.7841 16.6079 13.7841C17.4746 13.7841 18.2412 13.9441 18.9079 14.2641C19.5746 14.5708 20.0946 15.0241 20.4679 15.6241C20.8412 16.2108 21.0279 16.9441 21.0279 17.8241C21.0279 18.6775 20.8612 19.4308 20.5279 20.0841C20.1946 20.7375 19.7612 21.3308 19.2279 21.8641C18.6946 22.3975 18.1279 22.9308 17.5279 23.4641L13.6879 26.7841H21.1879V28.0841H11.5879Z" fill="#FF6600"/>
</g>
<defs>
<clipPath id="clip0_147_5115">
<rect width="50" height="50" fill="white" transform="translate(0.0078125 0.0281982)"/>
</clipPath>
</defs>
</svg>
