<svg width="50" height="51" viewBox="0 0 50 51" fill="none" xmlns="http://www.w3.org/2000/svg">
<g clip-path="url(#clip0_147_5106)">
<path d="M1.45889 45.6113C1.76514 45.7148 2.10361 45.6091 2.29824 45.3499C3.26836 44.0603 4.74922 43.3209 6.36182 43.3209H6.36514C7.97598 43.3217 9.45391 44.0611 10.4203 45.3492C10.6175 45.6125 10.9591 45.713 11.2597 45.6114C11.5666 45.5094 11.7737 45.2222 11.7737 44.8983C11.7737 37.8151 11.7737 14.5806 11.7737 7.49647C11.7737 7.33348 11.7209 7.17557 11.6231 7.04559C10.3707 5.37489 8.45439 4.41581 6.36631 4.41503C6.36445 4.41425 6.36338 4.41425 6.36191 4.41425C4.27188 4.41425 2.35303 5.37333 1.09619 7.04471C0.998145 7.1747 0.945313 7.33329 0.945313 7.49637V44.8982C0.945215 45.2221 1.15225 45.5093 1.45889 45.6113ZM2.44922 33.7027V26.5099C4.48242 24.0448 8.23701 24.0387 10.2698 26.5092V33.701C7.96084 31.9834 4.78525 31.9656 2.44922 33.7027ZM10.2697 24.3701C7.96074 22.6525 4.78525 22.6348 2.44912 24.3719V17.1791C4.48232 14.714 8.23691 14.7078 10.2697 17.1783V24.3701ZM6.36631 41.8169C6.36445 41.8169 6.36338 41.8169 6.36191 41.8169C4.92334 41.8169 3.56543 42.2707 2.44922 43.0991V35.8407C4.48242 33.3756 8.23701 33.3694 10.2698 35.8399V43.0969C9.15645 42.2707 7.80195 41.8176 6.36631 41.8169ZM6.36182 5.91825C6.36289 5.91825 6.36406 5.91825 6.36514 5.91903C7.89443 5.91981 9.3041 6.58661 10.2697 7.75643V15.0399C7.97969 13.3361 4.80381 13.2902 2.44912 15.0417V7.75712C3.41816 6.58583 4.83066 5.91825 6.36182 5.91825Z" fill="white"/>
<path d="M36.3347 6.3251C36.714 6.48809 37.1576 6.31406 37.3228 5.93291C37.4877 5.55108 37.3118 5.10899 36.9303 4.94444C34.4185 3.86055 31.5571 4.45293 29.6715 6.35654C28.446 5.11719 26.7959 4.41563 25.0164 4.41494C25.0149 4.41416 25.0134 4.41416 25.012 4.41416C23.2299 4.41416 21.5756 5.1169 20.3465 6.35899C18.4663 4.45528 15.6031 3.86485 13.083 4.95166C12.7018 5.11611 12.5259 5.55899 12.6908 5.94014C12.8552 6.32129 13.2963 6.49531 13.6793 6.33233C15.7645 5.43057 18.1618 6.01875 19.5924 7.7585V15.1028C17.9698 13.8955 15.8566 13.4982 13.8162 14.0945C13.4177 14.2113 13.1894 14.6291 13.3061 15.0279C13.4221 15.4267 13.8411 15.6536 14.2391 15.5383C16.2288 14.9531 18.3035 15.607 19.5952 17.1895V24.3634C17.9712 23.1521 15.8594 22.7458 13.8161 23.3438C13.4176 23.4606 13.1893 23.8784 13.306 24.2772C13.422 24.676 13.841 24.9021 14.239 24.7876C16.2236 24.2038 18.2997 24.8435 19.5922 26.4157V33.7594C17.9688 32.5528 15.8564 32.1541 13.816 32.7511C13.4175 32.8679 13.1892 33.2856 13.3059 33.6845C13.4219 34.0832 13.8409 34.3102 14.2389 34.1948C16.2298 33.6102 18.2999 34.2633 19.5921 35.8422V43.0916C17.9695 41.8843 15.8563 41.4863 13.8159 42.0833C13.4175 42.2001 13.1891 42.6179 13.3058 43.0167C13.4218 43.4154 13.8408 43.6416 14.2388 43.5271C16.3013 42.9212 18.4636 43.635 19.7414 45.3461C19.7465 45.3529 19.755 45.3553 19.7604 45.3619C20.0794 45.7652 20.6604 45.7313 20.948 45.3497C21.9181 44.0602 23.399 43.3207 25.0116 43.3207H25.0149C26.6191 43.3215 28.091 44.0557 29.0577 45.3339C29.0587 45.3353 29.0599 45.3363 29.061 45.3378C29.064 45.3417 29.0675 45.345 29.0705 45.349C29.0728 45.3521 29.0768 45.3532 29.0793 45.3563C29.4115 45.7813 30.0251 45.703 30.2873 45.3275C31.5773 43.6355 33.728 42.9246 35.7757 43.5197C36.1748 43.6357 36.5916 43.4059 36.7079 43.0079C36.8235 42.6092 36.5944 42.192 36.1957 42.076C34.1621 41.4845 32.0512 41.8869 30.424 43.0953V35.8398C31.7255 34.2663 33.7954 33.6126 35.7757 34.1874C36.1748 34.3042 36.5916 34.0735 36.7079 33.6756C36.8235 33.2769 36.5944 32.8597 36.1957 32.7437C34.1621 32.1514 32.0512 32.5553 30.424 33.763V26.5148C31.7254 24.9407 33.794 24.2876 35.7757 24.8632C36.1748 24.98 36.5916 24.7493 36.7079 24.3514C36.8235 23.9526 36.5944 23.5354 36.1957 23.4194C34.1621 22.8272 32.0506 23.2304 30.424 24.4381V17.1836C31.7245 15.6091 33.7952 14.9553 35.7757 15.531C36.1748 15.6484 36.5916 15.4171 36.7079 15.0191C36.7385 14.9132 36.7419 14.807 36.7272 14.7045C36.7175 14.3873 36.5169 14.0977 36.1957 14.0042C34.1603 13.4116 32.0514 13.8216 30.424 15.0322V7.75596C31.861 6.01914 34.2549 5.42686 36.3347 6.3251ZM21.0993 17.1791C23.13 14.7169 26.8817 14.7061 28.917 17.1745V24.3679C26.5952 22.6431 23.4216 22.6454 21.0993 24.3718V17.1791ZM21.0993 26.5099C23.13 24.0478 26.8817 24.0368 28.917 26.5053V33.6986C26.5952 31.9738 23.4216 31.9762 21.0993 33.7025V26.5099ZM25.012 5.91826C25.0131 5.91826 25.0142 5.91826 25.0153 5.91904C26.5433 5.91983 27.9514 6.58535 28.917 7.75283V15.0376C26.5997 13.3156 23.4262 13.3109 21.0993 15.0417V7.75713C22.0686 6.58584 23.4808 5.91826 25.012 5.91826ZM25.0164 41.8169C25.0149 41.8169 25.0134 41.8169 25.012 41.8169C23.5737 41.8169 22.2155 42.2707 21.0993 43.0991V35.8407C23.13 33.3786 26.8817 33.3677 28.917 35.8361V43.0956C27.8042 42.2701 26.451 41.8176 25.0164 41.8169Z" fill="#FF6600"/>
<path d="M43.6644 4.41509C43.6633 4.41431 43.6618 4.41431 43.6603 4.41431C41.5707 4.41431 39.6519 5.37339 38.395 7.04478C38.297 7.17476 38.2441 7.33335 38.2441 7.49644V44.8983C38.2441 45.2221 38.4509 45.5093 38.7578 45.6114C39.0641 45.7149 39.4029 45.6091 39.5972 45.35C40.5673 44.0604 42.0478 43.3209 43.6603 43.3209H43.6637C45.2745 43.3217 46.7527 44.0612 47.7192 45.3493C47.8639 45.5424 48.0886 45.6503 48.3207 45.6503C48.4 45.6503 48.4805 45.6378 48.5586 45.6114C48.8655 45.5093 49.0727 45.2221 49.0727 44.8983C49.0727 32.4483 49.0727 19.9629 49.0727 7.49644C49.0727 7.33345 49.0198 7.17554 48.9221 7.04556C47.6692 5.37495 45.7529 4.41587 43.6644 4.41509ZM47.5686 24.3704C45.2689 22.6598 42.0932 22.6279 39.7479 24.3719V17.1791C41.7812 14.7137 45.5357 14.708 47.5686 17.1784V24.3704ZM39.748 33.7028V26.5099C41.7813 24.0446 45.5358 24.0388 47.5686 26.5092V33.7012C45.2689 31.9906 42.0933 31.9587 39.748 33.7028ZM43.6603 5.91831C43.6614 5.91831 43.6626 5.91831 43.6637 5.91909C45.193 5.91987 46.6029 6.58667 47.5686 7.75649V15.0402C45.2881 13.3434 42.112 13.2834 39.748 15.0417V7.75718C40.717 6.58511 42.1296 5.91831 43.6603 5.91831ZM43.6644 41.8169C43.6633 41.8169 43.6618 41.8169 43.6603 41.8169C42.2218 41.8169 40.8643 42.2708 39.748 43.0992V35.8408C41.7813 33.3754 45.5358 33.3697 47.5686 35.8401V43.0977C46.455 42.2708 45.1004 41.8176 43.6644 41.8169Z" fill="#FF6600"/>
</g>
<defs>
<clipPath id="clip0_147_5106">
<rect width="50" height="50" fill="white" transform="translate(0.0078125 0.0281982)"/>
</clipPath>
</defs>
</svg>
